<svg width="1299" height="1112" viewBox="0 0 1299 1112" fill="none" xmlns="http://www.w3.org/2000/svg">
    <path d="M1281.16 1111.12L1285.01 1111.12C1234.87 1053.67 1122.17 1011.32 996.003 1002.66C961.838 1000.35 939.799 987.554 932.196 965.611C926.614 949.443 928.923 929.137 939.028 906.809C949.133 884.578 965.878 862.442 987.532 842.809C995.808 835.303 1005.24 825.775 1015.25 815.573C1061.73 768.319 1125.44 703.742 1181.93 733.383C1212.83 749.647 1218.6 780.347 1224.66 812.78C1230.82 845.693 1237.18 879.762 1272.3 896.122C1282.89 901.03 1295.11 904.495 1308.97 906.515L1308.97 900.645C1295.98 898.72 1284.62 895.448 1274.71 890.829C1242.28 875.72 1236.41 844.538 1230.25 811.625C1224.18 779.192 1217.93 745.701 1184.53 728.186C1140.45 705.089 1093.68 734.25 1053.07 770.629C1020.83 796.325 991.285 828.47 969.535 847.237C894.662 911.718 871.566 1009.11 970.981 1021.24C1068.86 1033.27 1158.07 1066.76 1214.37 1111.02L1281.16 1111.12Z" fill="#FFFAE5" />
    <path d="M1107.82 63.9431C1096.56 62.3072 1084.81 58.8427 1072.4 55.1858C1051.13 48.9305 1029.38 42.5791 1008.3 44.6966C989.538 42.8683 971.06 44.3121 954.122 53.6476C933.912 64.8116 927.272 91.8548 935.645 111.776C961.919 174.235 1055.94 177.506 1068.94 248.723L1068.94 248.819C1077.02 278.556 1060.28 312.529 1041.9 334.761C1010.62 372.39 953.645 403.38 902.158 409.733C899.848 409.636 897.442 409.636 895.132 409.54C874.537 408.963 851.728 408.386 829.112 409.926C790.617 410.119 750.581 413.873 719.978 432.832C671.666 462.667 685.14 539.273 730.565 525.703C732.682 527.339 734.992 528.783 737.398 529.745C746.83 533.691 762.901 534.557 785.229 515.79C809.481 495.483 832.097 486.34 856.349 486.821C877.714 487.302 900.811 495.289 931.223 512.612C958.17 528.01 984.059 550.722 1011.39 574.877C1053.64 612.025 1097.43 650.52 1146.9 661.394C1177.21 668.034 1211.95 667.072 1250.26 658.409C1269.02 654.175 1288.75 648.111 1309.16 640.22L1309.16 634.06C1288.27 642.241 1268.16 648.497 1249.01 652.828C1211.57 661.297 1177.6 662.26 1148.15 655.812C1100.12 645.227 1056.91 607.309 1015.14 570.547C987.524 546.295 961.442 523.294 934.014 507.607C902.736 489.707 878.773 481.527 856.445 481.046C830.653 480.469 806.882 490.094 781.475 511.363C765.5 524.74 751.064 529.167 739.612 524.356C729.41 520.025 722.577 508.573 721.422 493.559C720.074 476.525 726.907 451.599 750.293 437.067C790.232 412.333 848.36 413.968 895.036 415.218C899.848 415.315 904.564 415.507 909.183 415.603C965.002 416.853 1035.54 383.65 1073.08 338.417C1091.94 315.705 1109.07 280.577 1100.7 249.877L1100.7 249.781C1092.03 219.081 1060.18 198.39 1029.29 178.469C1007.05 164.033 986.075 150.464 973.948 133.718C962.303 117.743 957.683 101.093 960.859 86.9461C963.554 75.0125 971.445 65.2922 984.437 58.0741C1011.29 43.1567 1041.6 52.1065 1070.86 60.6714C1083.47 64.4246 1095.4 67.889 1107.05 69.6211C1140.54 74.5289 1180 70.7751 1218.11 59.1296C1254.1 48.0616 1285.95 30.4494 1309.05 8.98783L1309.05 1C1286.34 23.5202 1253.62 42.0948 1216.37 53.5477C1179.61 64.9044 1140.06 68.6583 1107.82 63.9431Z" fill="#FFFAE5" />
    <path d="M864.418 1025.18C811.775 997.756 761.923 971.868 744.888 940.976C734.398 921.92 732.377 905.56 738.632 890.931C755.762 851.569 831.694 832.417 898.677 815.478C949.202 802.774 992.798 791.706 1010.22 773.805C1031.1 752.343 1039.28 729.438 1034.56 705.764C1021.19 638.011 907.624 583.734 873.074 568.721C818.313 544.855 779.144 548.801 733.046 582.678C727.272 586.913 721.209 591.917 714.761 597.21C686.467 620.404 651.148 649.18 614.673 635.9C586.09 625.506 556.544 631.955 529.309 654.571C506.597 673.531 486.483 703.269 474.261 736.183C469.834 748.116 465.985 760.531 462.232 772.561C448.374 817.216 435.19 859.369 393.423 886.22C379.949 894.882 363.877 903.448 346.362 911.051L346.362 917.306C365.129 909.318 382.259 900.271 396.599 891.032C440.098 863.026 454.149 817.89 467.814 774.197C471.567 762.263 475.32 749.945 479.747 738.107C491.584 706.06 511.024 677.188 533.062 658.902C550.866 644.081 579.16 628.971 612.748 641.193C652.302 655.628 688.969 625.697 718.418 601.541C724.77 596.344 730.833 591.436 736.511 587.201C780.588 554.768 818.217 551.014 870.764 573.918C890.397 582.483 928.508 600.576 963.347 625.597C1001.65 653.217 1023.69 680.549 1028.89 706.726C1033.12 728.476 1025.52 749.649 1006.08 769.667C989.814 786.412 944.775 797.769 897.233 809.8C828.903 827.028 751.527 846.565 733.339 888.525C726.314 904.694 728.527 923.172 739.788 943.67C757.689 976.103 808.214 1002.38 861.724 1030.19C909.459 1055.02 958.348 1080.52 984.911 1111.03L992.417 1111.03C965.951 1078.02 914.655 1051.26 864.418 1025.18Z" fill="#FFFAE5" />
    <path d="M755.499 1059.15C724.221 1043.66 694.676 1028.94 680.529 1009.5C658.393 979.085 649.731 944.247 656.179 911.333C662.722 877.745 684.568 847.911 717.578 827.508C730.859 819.327 756.747 811.435 784.271 803.062C839.32 786.316 901.682 767.356 909.959 734.442C912.653 723.663 911.402 713.943 906.205 705.57C892.346 683.147 853.177 674.582 821.803 667.749C808.233 664.766 796.492 662.264 789.274 659.088C750.201 642.055 722.195 644.942 689.282 669.099C684.374 672.756 679.562 676.798 674.365 681.129C660.988 692.389 647.226 704.13 631.346 707.499C623.551 709.135 616.141 707.691 608.249 706.152C598.817 704.323 589.001 702.399 578.992 706.345C539.15 721.743 524.522 777.273 512.781 821.929C509.509 834.343 506.43 846.085 503.158 855.516C481.794 916.917 452.634 1000.93 390.272 1041.07C378.146 1048.86 363.133 1056.47 346.772 1062.82L346.772 1068.98C364.384 1062.34 380.552 1054.25 393.448 1045.88C457.446 1004.69 487.087 919.515 508.644 857.345C512.012 847.624 515.091 835.787 518.459 823.276C529.911 779.872 544.058 725.882 581.206 711.542C589.771 708.269 598.24 709.905 607.287 711.637C615.371 713.177 623.84 714.813 632.694 712.984C650.017 709.327 664.356 697.201 678.214 685.459C683.219 681.225 688.031 677.183 692.746 673.718C723.735 650.909 750.104 648.31 787.06 664.382C794.76 667.75 806.79 670.348 820.648 673.428C851.06 680.068 888.785 688.344 901.393 708.65C905.82 715.772 906.783 723.663 904.473 733.095C896.967 762.929 833.642 782.177 782.635 797.576C753.571 806.431 728.453 814.034 714.595 822.599C680.238 843.965 657.429 875.051 650.597 910.274C643.861 944.824 652.811 981.202 675.909 1012.96C690.923 1033.56 721.046 1048.57 752.997 1064.35C781.195 1078.31 809.971 1092.64 828.449 1111.22L836.533 1111.22C817.574 1089.95 786.2 1074.36 755.499 1059.15Z" fill="#FFFAE5" />
    <path d="M654.057 1069.45L651.651 1066.56C621.72 1029.9 587.843 988.418 603.53 938.566C607.379 926.247 613.827 914.217 619.986 902.668C633.555 877.165 647.606 850.795 635.864 818.94C628.742 799.596 618.637 794.496 611.323 793.534C599.582 792.09 586.878 800.367 575.715 816.824C558.777 841.75 551.175 871.584 543.861 900.456C540.3 914.411 536.643 928.847 532.024 942.224C513.258 996.118 488.526 1067.43 440.503 1111.22L448.876 1111.22C494.877 1066.28 519.032 996.888 537.413 944.149C542.129 930.483 545.882 915.95 549.443 901.899C556.66 873.509 564.167 844.252 580.527 820.096C590.343 805.756 601.314 798.153 610.649 799.308C618.733 800.27 625.567 807.777 630.475 820.961C641.35 850.41 628.455 874.47 614.885 899.974C608.63 911.811 602.086 924.034 598.044 936.834L598.044 936.93C581.492 989.765 616.427 1032.49 647.224 1070.32L649.63 1073.2C650.4 1074.17 651.555 1075.51 652.902 1077.15C663.2 1089.56 672.15 1100.92 679.657 1111.22L686.875 1111.22C677.443 1098.03 666.857 1084.85 657.329 1073.4C655.885 1071.76 654.827 1070.41 654.057 1069.45Z" fill="#FFFAE5" />
    <path d="M908.614 164.345C882.04 153.683 857.921 150.006 840.708 153.888C816.205 159.42 802.717 178.274 789.752 196.562C785.038 203.082 780.134 209.95 774.855 215.948C761.036 231.614 744.469 239.761 726.9 248.424C708.596 257.457 689.689 266.718 674.346 285.168L674.091 285.587C668.081 295.495 664.019 304.714 661.893 312.971C647.159 346.789 646.521 385.77 679.997 398.747C722.186 415.058 769.472 357.069 805.86 342.077C855.246 321.667 904.039 349.975 954.684 335.576C990.917 325.289 1014.4 285.405 1011.92 269.09C1011.64 267.126 1011.15 265.102 1010.59 263.149C1010.54 261.925 1010.43 260.772 1010.25 259.553C1007.75 242.83 996.477 224.82 977.603 207.382C959.148 190.201 934.013 174.578 908.614 164.345ZM729.557 253.631C746.86 245.114 764.695 236.304 779.297 219.79C784.772 213.581 789.742 206.642 794.515 199.915C807.486 181.762 819.815 164.589 842.022 159.556C874.827 152.129 935.225 175.96 973.75 211.553C991.634 228.076 1002.25 244.955 1004.56 260.323C1007.05 276.774 992.298 289.616 960.983 298.551C939.297 304.721 916.591 307.458 894.558 310.032C865.209 313.577 834.908 317.159 806.361 328.913C795.974 333.206 785.854 339.054 776.136 344.751C751.042 359.433 727.275 373.245 698.226 361.999C689.165 358.475 681.845 354.202 676.684 349.434C661.84 335.72 662.55 315.805 678.909 288.597C693.549 271.332 711.853 262.3 729.557 253.631Z" fill="#FFFAE5" />
    <path d="M1152.28 850.5C1149.77 848.96 1146.98 847.805 1144 846.939C1125.14 841.55 1102.91 847.132 1083.08 862.146C1059.98 879.662 1044.97 906.224 1044.97 929.802C1044.97 932.304 1045.16 934.903 1045.45 937.309C1046.9 947.703 1052.29 955.979 1061.52 962.042C1080 974.072 1111.47 974.36 1131.78 968.585C1143.52 965.217 1154.2 955.304 1161.81 940.676C1168.73 927.395 1172.68 911.034 1172.68 895.732C1172.58 874.655 1165.17 858.102 1152.28 850.5ZM1130.24 963.004C1113.98 967.719 1082.89 968.971 1064.7 957.134C1056.91 952.033 1052.38 945.104 1051.23 936.443C1050.94 934.229 1050.75 932.016 1050.75 929.706C1050.75 907.86 1064.8 883.03 1086.55 866.669C1104.93 852.81 1125.33 847.613 1142.46 852.425C1144.96 853.098 1147.27 854.157 1149.39 855.408C1160.55 862.048 1166.91 876.677 1166.91 895.732C1166.81 923.064 1152.86 956.555 1130.24 963.004Z" fill="#FFFAE5" />
    <path d="M1160.49 528.126C1163.3 528.966 1166.3 529.359 1169.4 529.423C1189.02 529.747 1209.05 518.601 1224.31 498.968C1242.09 476.071 1249.71 446.528 1243.61 423.753C1242.96 421.336 1242.1 418.876 1241.2 416.627C1237.12 406.961 1229.77 400.361 1219.28 396.896C1198.31 390.059 1167.84 397.926 1149.72 408.759C1139.25 415.052 1131.5 427.392 1127.94 443.489C1124.69 458.111 1125.11 474.936 1129.07 489.716C1134.62 510.049 1146.06 524.12 1160.49 528.126ZM1152.65 413.752C1167.14 404.988 1196.85 395.733 1217.48 402.459C1226.33 405.368 1232.49 410.891 1235.85 418.958C1236.7 421.022 1237.46 423.11 1238.06 425.341C1243.71 446.443 1236.57 474.063 1219.79 495.496C1205.62 513.64 1187.26 523.94 1169.47 523.726C1166.88 523.723 1164.37 523.298 1162 522.638C1149.5 519.113 1139.58 506.628 1134.65 488.222C1127.67 461.796 1132.48 425.834 1152.65 413.752Z" fill="#FFFAE5" />
    <path d="M1010.54 443.086C1006.45 445.445 1001.77 450.235 1002.75 459.477C1003.66 468.124 1009.85 480.893 1015.98 486.795C1024.81 495.319 1042.44 493.309 1054.29 486.468C1062.74 481.593 1067.68 474.743 1067.68 467.663C1067.7 466.287 1067.51 464.854 1067.14 463.432C1065.28 455.969 1057.93 449.048 1047.08 444.415C1035.91 439.696 1020.28 437.464 1010.54 443.086ZM1062.63 464.584C1062.87 465.626 1063 466.64 1063.02 467.625C1062.96 473.019 1058.95 478.333 1051.93 482.382C1038.86 489.931 1024.84 488.765 1019.2 483.397C1013.93 478.358 1008.25 466.475 1007.44 458.949C1006.87 453.558 1008.68 449.609 1012.9 447.172C1020.05 443.043 1033.34 443.725 1045.34 448.783C1054.63 452.769 1061.11 458.651 1062.63 464.584Z" fill="#FFFAE5" />
    <path d="M1111.44 193.306C1111.06 209.089 1117.7 224.776 1131.65 241.522C1153.59 267.698 1185.55 282.807 1216.34 297.435C1218.27 298.302 1220.1 299.168 1221.92 300.13C1289.2 332.08 1343.86 362.299 1391.79 405.991C1393.9 407.915 1396.31 410.033 1398.91 412.439C1402.76 415.903 1407.19 419.849 1411.9 424.18L1411.9 416.384C1408.63 413.401 1405.55 410.706 1402.76 408.204C1400.16 405.894 1397.75 403.681 1395.64 401.852C1347.13 357.679 1292.08 327.268 1224.33 295.029C1222.5 294.163 1220.58 293.297 1218.65 292.335C1188.34 277.995 1157.06 263.175 1135.89 237.961C1122.89 222.37 1116.64 207.838 1117.02 193.595C1117.41 174.924 1122.31 159.141 1131.17 147.977C1140.79 135.851 1154.36 129.788 1171.59 130.173C1202.1 130.75 1229.72 144.319 1256.47 157.503C1283.13 170.591 1310.56 184.064 1341.64 185.508C1367.92 186.662 1392.17 183.197 1411.9 175.69L1411.9 169.531C1392.65 177.23 1368.4 180.888 1341.93 179.733C1312.1 178.386 1285.15 165.106 1259.07 152.306C1231.83 138.929 1203.64 125.071 1171.78 124.398C1135.6 123.532 1112.4 149.999 1111.44 193.306Z" fill="#FFFAE5" />
    <path d="M862.979 557.946C859.614 552.117 845.699 553.653 830.02 561.049C846.102 547.941 854.834 534.364 850.503 526.863C847.138 521.034 836.53 520.215 822.895 523.628C837.057 511.375 844.506 498.92 840.451 491.897C836.7 485.399 824.126 485.077 808.133 489.979C814.011 483.719 816.693 477.775 814.596 474.144C811.976 469.605 802.567 469.75 790.939 473.852C807.934 457.032 911.537 385.659 905.993 376.056C900.724 366.931 960.497 310.948 939.243 316.212C951.536 305.738 869.221 341.032 865.773 335.06C862.214 328.897 766.21 393.403 750.417 399.208C756.481 392.713 759.135 386.721 756.956 382.947C754.06 377.93 743.372 378.368 730.444 383.284C749.726 369.03 760.567 353.534 755.823 345.316C751.685 338.149 736.609 338.509 718.368 345.09C723.787 339.987 726.428 335.086 724.773 332.219C723.366 329.783 719.08 329.327 713.492 330.515C732.105 314.545 741.939 298.419 736.671 289.294C729.251 276.442 694.52 282.607 659.045 303.088L0.000586047 665.437L168.43 957.165L836.162 589.8C854.865 579.002 866.896 564.73 862.979 557.946Z" fill="#FFFAE5" />
    <path opacity="0.5" d="M806.759 399.989C795.178 382.678 771.921 378.019 754.674 389.557C709.795 419.579 701.323 470.523 640.57 511.165C701.323 470.523 751.644 482.135 796.523 452.112C813.769 440.575 818.34 417.3 806.759 399.989Z" fill="#FFFAE5" />
    <path d="M806.759 399.99C798.995 388.384 783.271 385.234 771.708 392.97C741.724 413.029 736.011 447.319 695.443 474.457C736.011 447.319 769.886 455.126 799.87 435.067C811.302 427.135 814.523 411.596 806.759 399.99Z" fill="#FFFAE5" />
    <path d="M812.805 426.412L784.181 383.2C782.865 381.232 783.249 378.413 785.404 376.971L793.439 371.596L827.064 422.283L819.029 427.658C816.873 429.1 814.121 428.379 812.805 426.412Z" fill="url(#paint0_linear)" />
    <path d="M917.02 401.972L896.576 455.799C894.109 462.289 889.02 467.403 882.611 469.697L820.684 492.046C818.657 492.832 816.621 491.062 816.876 488.898L826.93 421.235L917.02 401.972Z" fill="url(#paint1_linear)" />
    <path d="M847.138 296.662L789.516 294.49C782.575 294.293 775.907 297.046 771.34 302.094L726.784 350.41C725.284 351.983 726.143 354.54 728.24 355.13L794.358 372.121L847.138 296.662Z" fill="url(#paint2_linear)" />
    <path d="M1033.38 248.955C962.727 227.308 822.475 282.692 789.931 359.989C788.957 362.35 788.965 364.907 790.281 366.874L829.763 426.741C831.079 428.708 833.244 429.823 835.993 429.693C919.995 430.163 1025.9 322.584 1033.38 248.955Z" fill="url(#paint3_linear)" />
    <path d="M1033.38 248.956C1007.88 240.954 973.19 243.375 937.933 253.008C928.452 237.14 992.418 335.301 992.418 335.301C1015.11 306.455 1030.72 275.51 1033.38 248.956Z" fill="url(#paint4_linear)" />
    <path d="M887.567 345.644C897.742 360.854 918.274 364.967 933.427 354.83C948.581 344.693 952.616 324.145 942.441 308.935C932.265 293.725 911.733 289.612 896.58 299.749C881.427 309.886 877.392 330.434 887.567 345.644Z" fill="url(#paint5_linear)" />
    <path d="M932.878 347.224C921.912 357.123 905.214 356.334 895.095 345.449C885.172 334.432 885.902 317.713 896.737 307.617C907.899 297.587 924.729 298.573 934.848 309.459C944.77 320.475 943.845 337.326 932.878 347.224Z" fill="url(#paint6_linear)" />
    <path d="M932.878 347.224C937.447 343.029 940.244 337.456 941.339 331.883C940.751 332.276 940.163 332.67 939.706 333.26C937.226 335.489 934.877 337.914 931.607 338.963C928.729 339.749 925.257 339.224 922.894 337.388C919.481 334.83 917.697 330.044 914.088 327.617C909.561 324.666 903.413 326.501 898.689 323.681C896.393 322.37 894.946 320.206 894.022 317.976C893.297 316.468 892.636 314.632 892.826 312.797C886.443 322.762 887.208 336.203 895.619 345.383C905.214 356.334 922.24 357.189 932.878 347.224Z" fill="url(#paint7_linear)" />
    <g opacity="0.4">
        <path opacity="0.4" d="M933.952 315.752C933.689 315.358 933.294 314.768 933.031 314.375C932.636 313.784 932.177 313.522 931.653 313.588C930.998 313.456 930.606 313.719 930.018 314.112C929.038 314.767 928.781 316.079 929.439 317.062L929.57 317.259C929.834 317.652 930.097 318.046 930.36 318.439C930.755 319.029 931.214 319.292 931.869 319.423C932.524 319.554 933.048 319.489 933.636 319.095C934.352 318.046 934.61 316.735 933.952 315.752Z" fill="white" />
        <path opacity="0.4" d="M928.369 310.376C928.302 309.852 927.907 309.261 927.448 308.999C922.33 305.589 916.106 304.342 910.086 305.522C908.843 305.784 908.258 307.029 908.392 308.079C908.524 308.275 908.46 308.603 908.591 308.8C909.118 309.587 909.904 309.915 910.951 309.784C915.924 308.735 920.837 309.719 924.906 312.408C925.365 312.671 926.02 312.802 926.543 312.736C927.067 312.671 927.655 312.277 927.915 311.819C928.307 311.556 928.568 311.097 928.369 310.376Z" fill="white" />
    </g>
    <path d="M800.648 353.961C797.258 358.222 793.803 362.811 790.544 367.269L808.047 393.432C808.568 392.514 808.957 391.4 809.281 390.613C810.452 388.122 811.753 385.827 813.055 383.533C815.527 378.747 818.458 374.223 821.454 369.371C827.512 360.193 834.161 351.474 841.597 343.082C856.273 326.431 873.311 311.615 892.125 299.029C901.664 292.933 911.334 287.033 921.662 282.117L925.453 280.151L929.375 278.381L937.22 274.842L945.328 271.696L949.382 270.123L953.568 268.746C975.148 261.144 997.916 256.164 1020.82 253.085C997.58 253.541 974.216 256.357 951.384 261.665L947.131 262.517L942.814 263.696L934.179 266.055L925.808 268.808L921.622 270.184L917.177 272.019C905.994 276.083 895.339 280.933 884.554 286.439C863.377 297.189 843.586 311.283 825.57 327.607C816.693 335.539 808.473 344.455 800.648 353.961Z" fill="white" />
    <path d="M759.394 430.535C756.499 426.207 757.789 420.503 761.773 417.553L814.357 381.237C820.693 376.714 827.751 372.846 835.139 369.897L864.822 357.443L867.849 361.968L844.877 384.454C839.2 389.961 833.127 394.877 826.332 399.138L772.433 433.487C767.99 436.175 762.289 434.863 759.394 430.535Z" fill="url(#paint8_linear)" />
    <path d="M835.052 186.008C835.052 186.008 841.195 165.74 849.14 186.008C870.272 186.498 854.054 199.656 854.054 199.656C854.054 199.656 860.689 221.966 842.423 208.891C823.999 221.15 829.727 199.983 829.727 199.983C814.247 186.09 835.052 186.008 835.052 186.008Z" fill="#FFD525" />
    <path d="M1101.05 276.008C1101.05 276.008 1107.19 255.74 1115.14 276.008C1136.27 276.498 1120.05 289.656 1120.05 289.656C1120.05 289.656 1126.69 311.966 1108.42 298.891C1090 311.15 1095.73 289.983 1095.73 289.983C1080.25 276.09 1101.05 276.008 1101.05 276.008Z" fill="#FFD525" />
    <path d="M949.052 465.008C949.052 465.008 955.195 444.74 963.14 465.008C984.272 465.498 968.054 478.656 968.054 478.656C968.054 478.656 974.689 500.966 956.423 487.891C937.999 500.15 943.727 478.983 943.727 478.983C928.247 465.09 949.052 465.008 949.052 465.008Z" fill="#FFD525" />
    <defs>
        <linearGradient id="paint0_linear" x1="798.395" y1="404.878" x2="810.267" y2="396.937" gradientUnits="userSpaceOnUse">
            <stop stop-color="white" />
            <stop offset="0.129" stop-color="#EFF6FF" />
            <stop offset="0.5153" stop-color="#C6DFFF" />
            <stop offset="0.8188" stop-color="#ACD0FF" />
            <stop offset="1" stop-color="#A2CBFF" />
        </linearGradient>
        <linearGradient id="paint1_linear" x1="843.212" y1="410.579" x2="883.098" y2="470.2" gradientUnits="userSpaceOnUse">
            <stop stop-color="#FC7200" />
            <stop offset="0.4985" stop-color="#FCA22E" />
            <stop offset="1" stop-color="#FDD661" />
        </linearGradient>
        <linearGradient id="paint2_linear" x1="770.79" y1="301.52" x2="810.579" y2="361.004" gradientUnits="userSpaceOnUse">
            <stop stop-color="#FDD661" />
            <stop offset="0.5015" stop-color="#FCA22E" />
            <stop offset="1" stop-color="#FC7200" />
        </linearGradient>
        <linearGradient id="paint3_linear" x1="926.988" y1="227.207" x2="884.426" y2="439.706" gradientUnits="userSpaceOnUse">
            <stop stop-color="white" />
            <stop offset="0.2088" stop-color="#FBFDFF" />
            <stop offset="0.416" stop-color="#EFF6FF" />
            <stop offset="0.6226" stop-color="#DBEBFF" />
            <stop offset="0.8275" stop-color="#BFDBFF" />
            <stop offset="1" stop-color="#A2CBFF" />
        </linearGradient>
        <linearGradient id="paint4_linear" x1="987.523" y1="239.336" x2="969.234" y2="330.643" gradientUnits="userSpaceOnUse">
            <stop stop-color="#FDD661" />
            <stop offset="0.5015" stop-color="#FCA22E" />
            <stop offset="1" stop-color="#FC7200" />
        </linearGradient>
        <linearGradient id="paint5_linear" x1="921.52" y1="295.047" x2="908.222" y2="359.718" gradientUnits="userSpaceOnUse">
            <stop stop-color="#FCC715" />
            <stop offset="0.0833177" stop-color="#FCC019" />
            <stop offset="0.4305" stop-color="#FDA729" />
            <stop offset="0.7462" stop-color="#FD9732" />
            <stop offset="1" stop-color="#FD9235" />
        </linearGradient>
        <linearGradient id="paint6_linear" x1="920.147" y1="301.169" x2="909.641" y2="353.606" gradientUnits="userSpaceOnUse">
            <stop stop-color="#2559CD" />
            <stop offset="0.3525" stop-color="#2255CC" />
            <stop offset="0.6915" stop-color="#1B4AC7" />
            <stop offset="1" stop-color="#0F38C1" />
        </linearGradient>
        <linearGradient id="paint7_linear" x1="916.896" y1="317.721" x2="909.705" y2="353.619" gradientUnits="userSpaceOnUse">
            <stop stop-color="#0F38C1" />
            <stop offset="0.3481" stop-color="#143FC3" />
            <stop offset="0.8476" stop-color="#2052CA" />
            <stop offset="1" stop-color="#2559CD" />
        </linearGradient>
        <linearGradient id="paint8_linear" x1="821.506" y1="348.92" x2="802.827" y2="442.182" gradientUnits="userSpaceOnUse">
            <stop stop-color="#FDD661" />
            <stop offset="0.5015" stop-color="#FCA22E" />
            <stop offset="1" stop-color="#FC7200" />
        </linearGradient>
    </defs>
</svg>
