<svg width="29" height="29" viewBox="0 0 29 29" fill="none" xmlns="http://www.w3.org/2000/svg">
  <path
    d="M27.4627 1.54516C26.7752 0.842536 25.7577 0.582661 24.809 0.857661L2.6852 7.25004C1.6842 7.52779 0.974703 8.32116 0.783578 9.32766C0.588328 10.3534 1.27033 11.6569 2.16133 12.2014L9.07895 16.4254C9.78845 16.8599 10.7042 16.7513 11.2913 16.1628L19.2127 8.24141C19.6115 7.82753 20.2715 7.82753 20.6702 8.24141C21.069 8.63878 21.069 9.28641 20.6702 9.69891L12.7351 17.6203C12.1466 18.2088 12.0366 19.1218 12.4697 19.8327L16.6965 26.7764C17.1915 27.6 18.044 28.0689 18.979 28.0689C19.089 28.0689 19.2127 28.0689 19.3227 28.0538C20.3952 27.9177 21.2477 27.1875 21.5639 26.1563L28.1227 4.19891C28.4115 3.26391 28.1502 2.24641 27.4627 1.54516Z"
    fill="#FFCE00"/>
  <path fill-rule="evenodd" clip-rule="evenodd"
        d="M2.1393 21.1113C1.8753 21.1113 1.6113 21.0109 1.41055 20.8088C1.00768 20.4059 1.00768 19.7541 1.41055 19.3513L3.28743 17.473C3.6903 17.0715 4.34343 17.0715 4.7463 17.473C5.1478 17.8759 5.1478 18.529 4.7463 18.9319L2.86805 20.8088C2.6673 21.0109 2.4033 21.1113 2.1393 21.1113ZM7.3109 22.7509C7.0469 22.7509 6.7829 22.6505 6.58215 22.4484C6.17927 22.0455 6.17927 21.3937 6.58215 20.9909L8.45902 19.1126C8.8619 18.7111 9.51502 18.7111 9.9179 19.1126C10.3194 19.5155 10.3194 20.1686 9.9179 20.5715L8.03965 22.4484C7.8389 22.6505 7.5749 22.7509 7.3109 22.7509ZM7.65964 27.6569C7.86039 27.859 8.12439 27.9594 8.38839 27.9594C8.65239 27.9594 8.91639 27.859 9.11714 27.6569L10.9954 25.78C11.3969 25.3771 11.3969 24.724 10.9954 24.3211C10.5925 23.9196 9.93939 23.9196 9.53652 24.3211L7.65964 26.1994C7.25677 26.6022 7.25677 27.254 7.65964 27.6569Z"
        fill="#FFE161"/>
</svg>
