<svg width="1440" height="682" viewBox="0 0 1440 682" fill="none" xmlns="http://www.w3.org/2000/svg">
<rect width="1440" height="889.742" fill="#1D1E2C"/>
<g opacity="0.08">
<path d="M1374.84 792.376L1373.81 796.819C1310.92 725.578 1284.85 585.647 1307.12 438C1313.2 398.028 1302.1 369.612 1274.99 355.732C1255.01 345.528 1227.43 343.47 1195.07 349.94C1162.84 356.432 1128.96 370.611 1097.09 391.038C1084.91 398.845 1069.73 407.515 1053.51 416.695C978.309 459.356 875.496 517.872 899.741 589.974C913.072 629.416 952.298 643.223 993.747 657.766C1035.81 672.532 1079.35 687.789 1091.68 732.141C1095.36 745.502 1096.69 760.416 1095.67 776.882L1087.87 775.516C1088.79 760.072 1087.49 746.203 1084.01 733.686C1072.62 692.736 1032.78 678.706 990.719 663.94C949.27 649.397 906.467 634.385 892.144 591.764C873.267 535.514 924.512 488.311 983.695 449.896C1026.45 418.66 1077.05 392.035 1107.79 371.295C1213.46 299.872 1348.99 295.868 1338.48 413.439C1328.26 529.211 1348.86 639.978 1392.59 715.261L1374.84 792.376Z" fill="white"/>
<path d="M30.5294 348.7C31.3704 335.323 29.9118 320.965 28.3779 305.784C25.763 279.779 23.1492 253.196 31.6022 229.361C34.1968 207.274 41.0597 186.282 57.9908 168.903C78.2261 148.172 115.918 146.798 140.134 161.097C216.05 205.953 195.229 315.244 286.331 346.808L286.458 346.83C323.788 363.079 373.387 351.653 407.831 335.608C466.176 308.259 522.58 249.706 544.796 191.753C545.287 189.065 545.931 186.288 546.421 183.599C551.167 159.693 556.505 133.232 564.603 107.485C575.162 63.0958 590.863 17.7578 624.232 -13.1566C676.784 -61.9807 774.915 -28.6079 744.735 20.6673C746.341 23.4918 747.64 26.4936 748.275 29.4946C750.99 41.2988 747.839 60.0514 716.94 81.4574C683.481 104.727 665.286 128.705 659.433 156.81C654.354 181.583 658.78 210.101 673.646 249.234C686.883 283.92 710.117 319.085 734.882 356.252C772.908 413.66 812.311 473.159 813.514 532.787C814.218 569.323 803.641 609.201 781.886 651.397C771.24 672.074 757.907 693.436 741.966 715.15L733.786 713.717C750.24 691.515 763.931 669.753 774.808 648.655C796.076 607.413 806.447 568.424 805.766 532.932C804.561 475.038 765.769 416.34 728.125 359.577C703.31 322.054 679.744 286.599 666.253 251.291C650.852 211.024 646.402 181.461 651.739 155.578C657.876 125.673 677.019 100.474 712.065 76.0952C734.107 60.7671 743.85 45.1343 740.525 30.7958C737.504 18.0134 724.123 7.46218 704.494 2.63659C682.232 -2.88128 647.301 -0.792789 621.742 22.8201C578.205 63.1665 564.819 130.642 553.988 184.809C552.828 190.386 551.821 195.874 550.713 201.228C537.434 265.948 474.458 339.649 404.341 372.45C369.13 388.939 317.894 400.54 279.364 383.734L279.236 383.712C240.783 366.572 221.83 324.99 203.642 284.697C190.421 255.679 178.015 228.305 159.022 210.413C140.923 193.255 120.048 184.05 100.41 184.425C83.8401 184.759 68.8191 191.607 55.7559 204.924C28.7587 232.447 32.5309 269.52 36.0752 305.283C37.6854 320.708 39.0924 335.288 38.2762 349.133C35.8303 388.932 20.2846 433.603 -5.38091 474.884C-29.7129 513.855 -61.6283 546.527 -96.312 568.195L-106.92 566.336C-70.9336 545.359 -37.5084 511.911 -12.3303 471.586C12.5912 431.793 28.1628 387.011 30.5294 348.7Z" fill="white"/>
<path d="M1446.51 173.53C1434.3 133.823 1422.66 96.2951 1400.63 75.4432C1366.16 42.8191 1322.21 24.7169 1276.78 24.5028C1230.42 24.2431 1184.95 42.5191 1149.02 75.8748C1134.6 89.3015 1117.19 117.347 1098.71 147.17C1061.73 206.815 1019.86 274.387 973.937 276.283C958.901 276.886 946.327 273.181 936.598 265.235C910.528 244.022 909.637 196.818 908.96 159.015C908.63 142.658 908.449 128.524 906.163 119.453C893.999 70.3904 905.329 38.7364 946.219 6.36489C952.39 1.55035 959.046 -3.06361 966.188 -8.05469C984.722 -20.876 1004 -34.0298 1012.72 -51.5752C1016.98 -60.1924 1017.05 -69.0818 1017.11 -78.5489C1017.21 -89.8606 1017.28 -101.639 1025.2 -112.274C1056.32 -154.681 1133.98 -158.648 1196.42 -161.812C1213.79 -162.701 1230.2 -163.524 1243.6 -165.107C1330.87 -175.484 1450.25 -189.598 1520.24 -252.245C1533.84 -264.428 1547.95 -279.988 1560.77 -297.395L1568.94 -295.962C1555.41 -277.179 1540.35 -260.397 1525.78 -247.46C1453.95 -183.17 1332.9 -168.77 1244.56 -158.35C1230.75 -156.723 1214.21 -155.922 1196.69 -154.944C1135.99 -151.822 1060.5 -148.053 1031.51 -108.51C1024.87 -99.3846 1024.78 -89.2286 1024.66 -78.3836C1024.54 -68.6943 1024.45 -58.5382 1019.65 -48.7438C1010.15 -29.5993 990.211 -15.8687 970.909 -2.60384C963.946 2.18747 957.29 6.8014 951.427 11.4386C912.841 41.9018 902.333 71.7345 913.785 118.13C916.198 127.8 916.429 142.29 916.81 159.003C917.489 195.65 918.383 241.121 941.976 260.397C950.249 267.164 960.472 270.11 973.616 269.638C1015.25 267.914 1057.76 199.298 1091.86 144.005C1111.4 112.517 1128.22 85.2929 1143.3 71.2893C1180.87 36.6023 1228.26 17.5066 1276.87 17.8137C1324.55 18.0751 1370.47 36.8687 1406.46 70.9171C1429.8 93.0374 1441.67 131.299 1454.08 171.851C1465.07 207.645 1476.41 244.195 1496.13 269.845L1493.97 279.176C1470.79 252.344 1458.49 212.504 1446.51 173.53Z" fill="white"/>
<path d="M217.179 142.117C210.131 108.963 211.702 80.269 221.465 61.3036C235.37 34.3076 264.018 23.1245 291.776 12.413C301.697 8.48889 312.131 4.42581 321.509 -0.272593C346.012 -12.5785 361.266 -29.8068 377.473 -48.0706C394.368 -67.0962 411.727 -86.7658 440.336 -100.184L440.961 -100.381C455.729 -105.013 469.058 -107.558 480.592 -108.09C529.448 -117.231 581.387 -108.899 589.663 -67.2406C600.032 -14.7494 510.365 26.342 480.716 64.8554C440.393 117.112 464.929 180.016 432.252 235.125C408.893 274.554 349.639 292.384 328.637 285.721C326.104 284.939 323.547 283.904 321.102 282.81C319.489 282.47 317.988 282.07 316.419 281.574C294.879 274.798 273.976 257.601 255.87 231.76C237.992 206.461 223.971 173.814 217.179 142.117ZM383.677 -43.7916C367.736 -25.8015 351.262 -7.26409 325.423 5.74913C315.71 10.6244 305.165 14.7464 294.954 18.6916C267.375 29.4409 241.269 39.6766 228.641 64.1389C209.998 100.277 225.482 175.535 262.44 228.283C279.597 252.769 299.173 268.943 318.964 275.185C340.146 281.885 361.148 267.85 381.394 233.783C395.392 210.187 405.105 184.614 414.42 159.782C426.982 126.731 439.85 92.5885 463.099 62.3713C471.58 51.3813 482.056 41.0601 492.222 31.1682C518.437 5.61769 543.141 -18.6027 535.98 -54.7485C533.726 -66.027 530.01 -75.4703 525.059 -82.5355C510.818 -102.86 484.181 -106.673 443.669 -94.1196C416.822 -81.2367 399.928 -62.2111 383.677 -43.7916Z" fill="white"/>
<path d="M1063.21 582.978C1061.84 579.731 1061.05 576.241 1060.7 572.596C1058.59 549.569 1071.95 525.207 1097.2 505.816C1126.64 483.231 1165.93 472.081 1197.25 477.566C1200.57 478.148 1203.97 478.974 1207.09 479.867C1220.51 483.952 1230.05 492.098 1235.63 504.172C1246.66 528.299 1238.62 564.691 1225.52 586.787C1217.91 599.556 1201.88 609.58 1180.42 614.953C1160.93 619.861 1138.14 620.61 1117.82 617.05C1089.86 612.036 1069.86 599.632 1063.21 582.978ZM1218.52 583.711C1229.14 566.035 1239.12 530.445 1228.27 506.696C1223.58 496.512 1215.59 489.679 1204.39 486.331C1201.53 485.483 1198.64 484.746 1195.57 484.208C1166.56 479.126 1129.83 489.568 1102.28 510.868C1078.95 528.861 1066.59 551.202 1068.39 572.095C1068.62 575.14 1069.41 578.052 1070.5 580.787C1076.33 595.218 1094.06 605.952 1119.37 610.385C1155.69 616.632 1203.9 608.316 1218.52 583.711Z" fill="white"/>
<path d="M201.356 382.969C222.42 386.197 241.475 397.511 259.979 417.513C288.87 448.93 300.385 489.325 311.569 528.275C312.204 530.699 312.865 533.011 313.653 535.345C338.081 620.426 363.582 690.552 408.78 756.037C410.769 758.928 412.937 762.198 415.437 765.757C419.007 771.006 423.063 777.034 427.552 783.485L417.199 781.671C414.113 777.2 411.359 773.019 408.783 769.215C406.411 765.679 404.115 762.386 402.253 759.517C356.571 693.254 330.917 622.639 306.236 536.936C305.575 534.624 304.94 532.2 304.177 529.755C293.247 491.427 281.936 451.877 254.117 421.573C236.889 402.949 219.264 392.348 200.245 389.479C175.347 385.58 153.073 387.574 135.877 395.197C117.197 403.484 105.513 417.737 101.413 437.71C94.0146 473.059 104.643 508.097 114.992 542.045C125.239 575.861 135.791 610.654 129.388 646.87C123.889 677.465 112.797 704.652 97.5472 725.678L89.3674 724.246C104.744 703.82 116.092 676.677 121.642 645.86C127.838 611.11 117.413 576.917 107.395 543.836C96.9189 509.287 86.0616 473.515 93.6932 436.589C102.228 394.62 143.584 374.005 201.356 382.969Z" fill="white"/>
</g>
</svg>
