<svg width="113" height="113" viewBox="0 0 113 113" fill="none" xmlns="http://www.w3.org/2000/svg">
<path d="M56.5 113C87.7041 113 113 87.7041 113 56.5C113 25.2959 87.7041 0 56.5 0C25.2959 0 0 25.2959 0 56.5C0 87.7041 25.2959 113 56.5 113Z" fill="#FFB93E"/>
<path d="M69.8705 55.5147C73.3472 53.1503 75.0497 49.8413 75.0497 45.6531C75.0497 42.0055 73.7549 38.9694 71.1653 36.4685C68.8127 34.1969 66.0082 32.9847 62.7024 32.7881V28.1249C62.7024 27.0764 61.8429 26.2246 60.785 26.2246C59.7271 26.2246 58.8676 27.0764 58.8676 28.1249V32.7554H56.5425V28.1249C56.5425 27.0764 55.683 26.2246 54.6251 26.2246C53.5672 26.2246 52.7077 27.0764 52.7077 28.1249V32.7554H46.377C44.2999 32.7554 42.6194 34.4263 42.6194 36.4794V76.3083C42.6194 78.3615 44.2999 80.0324 46.377 80.0324H52.7077V84.4882C52.7077 85.5366 53.5672 86.3884 54.6251 86.3884C55.683 86.3884 56.5425 85.5366 56.5425 84.4882V80.0324H58.8676V84.4882C58.8676 85.5366 59.7271 86.3884 60.785 86.3884C61.8429 86.3884 62.7024 85.5366 62.7024 84.4882V80.0324H63.1927C67.0771 80.0324 70.3499 78.7492 73.0056 76.1828C75.6613 73.6163 77.0277 70.4438 77.0277 66.6596C77.0277 61.5923 74.2343 57.6061 69.8705 55.5147ZM48.9501 40.9625C48.9501 39.6738 50.0024 38.6309 51.3027 38.6309H61.6941C62.0412 38.6309 62.3773 38.6527 62.7024 38.7019C64.2341 38.9148 65.5399 39.6247 66.6694 40.7932C68.1019 42.213 68.7796 43.9003 68.7796 45.8606C68.7796 49.5683 66.2176 52.5388 62.7024 53.0193C62.3718 53.063 62.0357 53.0903 61.6941 53.0903H51.3027C50.0024 53.0903 48.9501 52.0473 48.9501 50.7586V40.9625V40.9625ZM63.1927 74.1569H50.8509C49.7986 74.1569 48.9501 73.316 48.9501 72.273V60.7131C48.9501 59.6702 49.7986 58.8293 50.8509 58.8293H63.1927C65.303 58.8293 67.0771 59.5719 68.5096 61.0572C70.0083 62.5424 70.7576 64.3662 70.7576 66.4576C70.7576 70.7769 67.4848 74.1569 63.1927 74.1569Z" fill="#A86700"/>
<path d="M57.2819 21.5972C59.3334 21.5972 60.9964 19.9568 60.9964 17.9334C60.9964 15.9099 59.3334 14.2695 57.2819 14.2695C55.2304 14.2695 53.5674 15.9099 53.5674 17.9334C53.5674 19.9568 55.2304 21.5972 57.2819 21.5972Z" fill="#A86700"/>
<path d="M57.2819 98.3452C59.3334 98.3452 60.9964 96.7049 60.9964 94.6814C60.9964 92.6579 59.3334 91.0176 57.2819 91.0176C55.2304 91.0176 53.5674 92.6579 53.5674 94.6814C53.5674 96.7049 55.2304 98.3452 57.2819 98.3452Z" fill="#A86700"/>
<path d="M56.5001 104.13C83.1693 104.13 104.789 82.8059 104.789 56.5008C104.789 30.1956 83.1693 8.87109 56.5001 8.87109C29.8309 8.87109 8.21118 30.1956 8.21118 56.5008C8.21118 82.8059 29.8309 104.13 56.5001 104.13Z" stroke="#A86700" stroke-width="4"/>
</svg>
