<svg width="304" height="289" viewBox="0 0 304 289" fill="none" xmlns="http://www.w3.org/2000/svg">
  <path d="M237.492 45.0916C237.492 45.0916 205.418 41.0398 179.491 54.0849C153.564 67.13 108.96 112.34 86.4972 118.261C64.0347 124.182 41.2798 127.642 41.2798 127.642L67.8344 245.705C67.8344 245.705 119.784 231.628 138.784 219.323C165.24 202.19 188.588 165.873 209.178 158.655C233.608 150.089 284.385 143.713 284.385 143.713L237.492 45.0916Z" fill="#006156"/>
  <path d="M198.249 150.753C219.236 140.915 264.408 134.346 264.408 134.346L227.062 55.6636C227.062 55.6636 205.822 54.1886 179.043 66.385C155.792 76.9751 113.354 117.274 94.1422 123.532C74.9306 129.789 55.6988 134.309 55.6988 134.309L78.8069 228.908C78.8069 228.908 103.198 222.463 127.689 211.116C155.824 198.082 180.915 158.877 198.249 150.753Z" fill="#C8E2DE"/>
  <path d="M141.11 97.7837C153.886 87.303 166.693 89.3625 178.214 111.81C191.463 137.626 187.953 161.544 178.766 168.504C169.579 175.464 149.193 189.298 133.14 158.323C122.466 137.724 123.453 110.132 129.771 105.125C136.091 100.121 141.11 97.7837 141.11 97.7837Z" fill="#006156"/>
  <path d="M220.294 112.138C215.336 113.396 210.248 110.188 208.925 104.975C207.603 99.7599 210.548 94.5137 215.506 93.2566C220.464 91.9996 225.552 95.2072 226.873 100.422C228.197 105.635 225.25 110.879 220.294 112.138Z" fill="#006156"/>
  <path d="M263.693 138.455C258.735 139.712 253.647 136.504 252.323 131.291C251.002 126.076 253.947 120.83 258.904 119.573C263.862 118.316 268.95 121.524 270.272 126.739C271.593 131.949 268.646 137.197 263.693 138.455Z" fill="#006156"/>
  <path d="M232.682 69.9803C227.724 71.2373 222.636 68.0297 221.312 62.8166C219.991 57.6017 222.936 52.3555 227.893 51.0984C232.851 49.8414 237.939 53.049 239.261 58.264C240.584 63.477 237.639 68.7232 232.682 69.9803Z" fill="#006156"/>
  <path d="M62.3593 150.164C57.4016 151.421 52.3135 148.213 50.9898 143C49.6684 137.785 52.6135 132.539 57.5712 131.282C62.5289 130.025 67.617 133.233 68.9384 138.448C70.2621 143.661 67.317 148.907 62.3593 150.164Z" fill="#006156"/>
  <path d="M83.4147 228.131C78.457 229.388 73.3689 226.18 72.0452 220.967C70.7238 215.752 73.6689 210.506 78.6266 209.249C83.5843 207.992 88.6725 211.199 89.9938 216.414C91.3176 221.627 88.3705 226.871 83.4147 228.131Z" fill="#006156"/>
  <path d="M96.5722 180.887C91.6145 182.144 86.5264 178.936 85.2026 173.723C83.8813 168.508 86.8264 163.262 91.7841 162.005C96.7418 160.748 101.83 163.955 103.151 169.17C104.473 174.381 101.528 179.627 96.5722 180.887Z" fill="#006156"/>
  <path d="M164.366 130.777C166.561 127.781 167.004 124.507 165.772 120.994C164.699 117.935 162.727 115.761 159.838 114.418C157.211 113.199 154.523 113 151.717 113.797L150.346 109.883C150.037 109 149.072 108.538 148.19 108.847C147.307 109.155 146.845 110.12 147.154 111.003L148.517 114.893L146.581 115.571L145.218 111.681C144.91 110.799 143.945 110.337 143.062 110.646C142.179 110.954 141.717 111.919 142.026 112.802L143.389 116.691L138.123 118.537C136.398 119.141 135.49 121.032 136.094 122.757L147.816 156.177C148.42 157.902 150.31 158.81 152.035 158.206L157.301 156.36L158.612 160.1C158.92 160.982 159.885 161.444 160.768 161.136C161.651 160.827 162.112 159.862 161.804 158.979L160.493 155.239L162.429 154.561L163.739 158.301C164.048 159.184 165.013 159.646 165.896 159.337C166.779 159.028 167.24 158.063 166.932 157.181L165.621 153.441L166.027 153.298C169.257 152.166 171.598 150.134 173.054 147.206C174.511 144.278 174.71 141.218 173.596 138.044C172.107 133.79 168.611 131.263 164.366 130.777ZM142.688 124.668C142.309 123.588 142.878 122.405 143.958 122.025L152.599 118.995C152.889 118.893 153.174 118.814 153.461 118.758C154.798 118.49 156.093 118.704 157.373 119.356C158.981 120.13 160.045 121.348 160.622 122.99C161.712 126.1 160.453 129.34 157.674 130.768C157.413 130.901 157.141 131.021 156.854 131.121L148.212 134.151C147.132 134.531 145.949 133.962 145.569 132.882L142.688 124.668ZM164.299 148.367L154.037 151.966C153.163 152.271 152.208 151.813 151.901 150.941L148.497 141.238C148.192 140.364 148.651 139.409 149.522 139.102L159.785 135.503C161.542 134.885 163.234 134.994 164.861 135.822C166.545 136.633 167.706 137.943 168.321 139.702C169.595 143.327 167.869 147.113 164.299 148.367Z" fill="#C8E2DE"/>
</svg>
