<svg width="196" height="175" viewBox="0 0 196 175" fill="none" xmlns="http://www.w3.org/2000/svg">
  <path d="M115.185 102.871C123.751 102.871 131.058 99.8721 137.1 93.8623C143.143 87.8525 146.154 79.8773 146.154 69.9426C146.154 61.8957 143.038 54.718 136.81 48.4185C130.571 42.119 123.369 38.9707 115.185 38.9707H57.2375C52.1208 38.9707 47.9749 43.1166 47.9749 48.2333V69.3452C47.9749 71.2629 49.5311 72.8191 51.4487 72.8191H51.5174C53.4351 72.8191 54.9913 71.2629 54.9913 69.3452V49.461C54.9913 47.5433 56.5475 45.9871 58.4651 45.9871H115.185C121.425 45.9871 126.971 48.4424 131.846 53.338C136.709 58.2456 139.152 63.7805 139.152 69.9396C139.152 78.1956 136.825 84.5728 132.184 89.0772C127.542 93.5935 121.879 95.8487 115.188 95.8487H43.2196C38.103 95.8487 33.957 99.9946 33.957 105.111V168.74C33.957 170.657 35.5132 172.214 37.4309 172.214H37.4996C39.4172 172.214 40.9734 170.657 40.9734 168.74V106.345C40.9734 104.427 42.5296 102.871 44.4473 102.871H115.185Z" fill="white"/>
  <path d="M115.187 88.8514C126.487 88.8514 132.135 82.5519 132.135 69.9558C132.135 65.4185 130.456 61.4578 127.123 58.0765C123.778 54.6953 119.793 53.0166 115.187 53.0166H71.2726C66.1559 53.0166 62.01 57.1625 62.01 62.2792V69.3614C62.01 71.279 63.5662 72.8352 65.4838 72.8352H65.5406C67.4582 72.8352 69.0144 71.279 69.0144 69.3614V63.4949C69.0144 61.5773 70.5707 60.0211 72.4883 60.0211H115.187C117.977 60.0211 120.34 60.9709 122.248 62.8467C124.16 64.7345 125.119 67.1062 125.119 69.9558C125.119 74.3795 124.25 77.4591 122.49 79.2184C120.743 80.9658 118.3 81.8469 115.184 81.8469H29.1891C24.0724 81.8469 19.9265 85.9929 19.9265 91.1096V168.759C19.9265 170.677 21.4827 172.233 23.4004 172.233H23.4691C25.3867 172.233 26.9429 170.677 26.9429 168.759V92.3223C26.9429 90.4046 28.4991 88.8484 30.4168 88.8484H115.187V88.8514Z" fill="white"/>
  <path d="M115.185 116.896C123.172 116.896 130.595 114.904 137.438 110.91C144.293 106.917 149.792 101.301 153.947 94.0637C158.102 86.8173 160.187 78.7823 160.187 69.9468C160.187 62.1538 158.126 54.7909 154.004 47.8462C149.87 40.8985 144.338 35.3427 137.39 31.1849C130.442 27.027 123.047 24.957 115.185 24.957H43.2196C38.103 24.957 33.957 29.103 33.957 34.2196V69.3524C33.957 71.2701 35.5132 72.8263 37.4309 72.8263H37.4996C39.4172 72.8263 40.9734 71.2701 40.9734 69.3524V35.4383C40.9734 33.5207 42.5296 31.9645 44.4473 31.9645H115.188C125.248 31.9645 134.095 35.7968 141.736 43.4613C149.365 51.1259 153.176 59.9584 153.176 69.9498C153.176 77.6831 151.405 84.6308 147.874 90.8019C144.332 96.973 139.69 101.695 133.946 104.972C128.193 108.249 121.941 109.892 115.191 109.892H57.2435C52.1268 109.892 47.9809 114.038 47.9809 119.154V168.75C47.9809 170.668 49.5371 172.224 51.4547 172.224H51.5234C53.4411 172.224 54.9973 170.668 54.9973 168.75V120.37C54.9973 118.452 56.5535 116.896 58.4711 116.896H115.185Z" fill="white"/>
  <path d="M166.126 40.8313C160.732 31.742 153.494 24.4836 144.408 19.0653C135.319 13.635 125.572 10.9258 115.186 10.9258H29.1884C24.0717 10.9258 19.9258 15.0717 19.9258 20.1884V69.3539C19.9258 71.2715 21.482 72.8277 23.3996 72.8277H23.4683C25.386 72.8277 26.9422 71.2715 26.9422 69.3539V21.416C26.9422 19.4984 28.4984 17.9422 30.416 17.9422H115.186C124.344 17.9422 132.935 20.3258 140.946 25.096C148.969 29.8661 155.349 36.2672 160.084 44.2902C164.83 52.3013 167.204 60.8589 167.204 69.9453C167.204 77.5531 165.804 84.7069 163.014 91.4216C160.224 98.1482 156.472 103.856 151.759 108.567C147.045 113.277 141.514 117.008 135.157 119.774C128.789 122.528 122.131 123.908 115.186 123.908H71.2719C66.1552 123.908 62.0093 128.054 62.0093 133.17V168.745C62.0093 170.663 63.5655 172.219 65.4831 172.219H65.5399C67.4575 172.219 69.0137 170.663 69.0137 168.745V134.401C69.0137 132.483 70.5699 130.927 72.4876 130.927H115.186C123.105 130.927 130.641 129.514 137.786 126.689C144.931 123.863 151.191 119.881 156.589 114.753C161.971 109.624 166.255 103.187 169.439 95.4182C172.623 87.661 174.209 79.175 174.209 69.9483C174.209 59.6313 171.512 49.9177 166.126 40.8313Z" fill="white"/>
  <path d="M168.226 51.1184C171.227 48.5789 174.143 45.9706 176.908 43.2444C179.661 40.5083 182.275 37.6575 184.549 34.6101C186.8 31.566 188.779 28.3253 189.949 24.9503C190.516 23.266 190.889 21.5621 190.938 19.9205C190.994 18.2788 190.702 16.7224 190.096 15.3363C188.9 12.5543 186.243 10.5031 183.081 9.18911C179.913 7.87185 176.322 7.17063 172.665 6.88227C170.837 6.72171 168.979 6.68567 167.118 6.67584C166.185 6.6955 165.251 6.71844 164.317 6.75448C163.38 6.81674 162.443 6.85934 161.506 6.93798C157.754 7.23289 153.99 7.73751 150.248 8.44201C146.5 9.1203 142.768 9.96897 139.059 10.9323C135.337 11.8564 131.66 12.9836 127.984 14.1304C124.305 15.274 120.674 16.5815 117.031 17.8791C113.411 19.2356 109.79 20.6086 106.202 22.0831C99.017 25.006 91.9071 28.1648 84.8398 31.4677L79.5483 33.9745L74.2666 36.527L63.7065 41.7141C65.276 40.528 66.8716 39.3876 68.4574 38.2244C70.0662 37.0972 71.6815 35.9765 73.3066 34.8657C74.9383 33.768 76.5896 32.7031 78.2344 31.6185L83.2408 28.4859C89.9674 24.39 96.8906 20.5988 104.001 17.1385C111.104 13.6651 118.417 10.5883 125.91 7.93739C126.841 7.59005 127.788 7.28531 128.735 6.97402C129.681 6.66601 130.619 6.33833 131.575 6.05653L134.432 5.17836L137.312 4.35918C141.169 3.32045 145.068 2.40623 149.016 1.66896C156.922 0.276344 165.051 -0.529736 173.317 0.397584C177.433 0.879267 181.617 1.77054 185.594 3.67761C187.573 4.62787 189.513 5.83371 191.204 7.44588C192.888 9.04821 194.297 11.0831 195.116 13.344C195.951 15.6017 196.148 18.0265 195.902 20.2776C195.656 22.5419 195.001 24.6554 194.133 26.605C192.387 30.5109 189.854 33.791 187.128 36.763C184.366 39.7088 181.328 42.3105 178.154 44.6829C174.979 47.0651 171.65 49.1884 168.226 51.1184Z" fill="#44A798"/>
  <path d="M71.8476 57.0228L56.2392 66.1591C56.2392 66.1591 56.7087 59.1519 53.9403 54.3944C50.7873 48.9773 44.0619 50.4117 42.1951 48.4044C38.9937 44.9612 38.3433 41.6317 38.3433 41.6317L51.2833 36.0928C51.2833 36.0928 53.505 39.3147 55.1429 40.9433C58.7568 44.5358 65.1972 43.0359 68.0122 46.0215C72.1683 50.4291 71.8476 57.0228 71.8476 57.0228Z" fill="#44A798"/>
  <path d="M70.4074 56.3313L57.989 63.6623C57.989 63.6623 57.9118 56.825 55.5467 52.8021C52.8536 48.2208 45.3143 49.2293 43.6289 47.6218C40.7563 44.8821 39.9487 42.1214 39.9487 42.1214L50.7425 37.2607C50.7425 37.2607 52.7508 40.5935 54.1531 41.9688C57.2458 45.0035 64.0333 43.9089 66.4422 46.431C69.9986 50.1549 70.4074 56.3313 70.4074 56.3313Z" fill="#C8E2DE"/>
  <path d="M52.2771 49.8043C50.9817 49.252 49.7023 47.9192 52.099 46.3433C54.8491 44.5352 58.3164 44.046 60.8515 44.4701C63.3865 44.8942 64.8979 46.7482 61.7568 48.7102C58.6151 50.6717 55.7814 51.2671 54.6176 50.9964C53.4533 50.7258 52.2771 49.8043 52.2771 49.8043Z" fill="#44A798"/>
  <path d="M50.4254 42.8274C50.5875 43.3055 50.2651 43.8478 49.7051 44.0392C49.1446 44.2307 48.5591 43.998 48.3969 43.5203C48.2348 43.0422 48.5572 42.4999 49.1172 42.3085C49.6772 42.1166 50.2632 42.3493 50.4254 42.8274Z" fill="#44A798"/>
  <path d="M64.9255 53.3627C65.1224 53.943 64.8282 54.5686 64.2678 54.7596C63.7078 54.951 63.0939 54.6354 62.8966 54.0552C62.6997 53.4749 62.9939 52.8493 63.5543 52.6583C64.1148 52.4674 64.7287 52.7824 64.9255 53.3627Z" fill="#44A798"/>
  <path d="M57.8182 48.0837C58.37 48.2248 58.8528 48.1286 59.2543 47.8131C59.5941 47.5461 59.7517 47.2177 59.7407 46.8279C59.7311 46.4849 59.5909 46.1836 59.3246 45.9133L59.7224 45.6294C59.8101 45.5666 59.8083 45.4526 59.7192 45.3743C59.6306 45.2969 59.4881 45.2832 59.4004 45.3445L59.0049 45.6189L58.813 45.4448L59.209 45.1746C59.2972 45.1146 59.2981 45.0047 59.2118 44.9291C59.1264 44.854 58.9861 44.8407 58.898 44.8994L58.502 45.1622L58.0036 44.7102C57.8442 44.5655 57.5706 44.5394 57.3889 44.652L53.3269 47.1641C53.0843 47.3139 53.009 47.5905 53.1634 47.7819L53.6484 48.3828L53.098 48.7483C52.9656 48.8362 52.924 48.9956 53.0067 49.1037C53.0903 49.2127 53.267 49.2278 53.4004 49.1371L53.9531 48.7602L54.1413 48.9938L53.5877 49.378C53.4543 49.4705 53.415 49.6372 53.5018 49.7508C53.5891 49.8648 53.7699 49.88 53.9038 49.7842L54.4596 49.3876L54.5008 49.4385C54.8324 49.8493 55.2759 50.0856 55.824 50.1378C56.3712 50.19 56.8649 50.0462 57.2906 49.7064C57.8401 49.2672 57.9991 48.6608 57.8182 48.0837ZM57.4724 45.3656C57.5898 45.2896 57.7675 45.3061 57.8703 45.4027L58.723 46.2014C58.7523 46.2289 58.7788 46.2573 58.8025 46.2861C58.9144 46.4226 58.9628 46.5756 58.9542 46.746C58.9491 46.9617 58.8528 47.1366 58.6687 47.2745C58.3129 47.5406 57.7954 47.5296 57.4446 47.2552C57.4121 47.23 57.3811 47.2021 57.3519 47.1723L56.5 46.3022C56.3972 46.1973 56.4182 46.0457 56.5448 45.9642L57.4724 45.3656ZM55.2032 48.9347L54.2011 47.7489C54.1198 47.6523 54.1513 47.5122 54.2705 47.4348L55.5362 46.6173C55.6449 46.5467 55.7993 46.5609 55.882 46.6484L56.8951 47.7228C57.0769 47.9157 57.1536 48.1364 57.123 48.3874C57.0979 48.6503 56.9682 48.8728 56.7389 49.0469C56.2524 49.4156 55.5723 49.3711 55.2032 48.9347Z" fill="white"/>
  <path d="M69.7396 57.0262C69.5418 56.4757 69.1942 54.3186 70.5631 54.7578C71.0454 54.9126 71.0788 55.6866 71.0409 56.1331C70.9801 56.8535 70.7225 56.7752 70.0817 57.0949L69.7396 57.0262Z" fill="#44A798"/>
  <path d="M57.3247 64.1013C57.3448 63.3401 56.6017 60.8225 58.3356 61.7811C59.509 62.4296 58.5224 64.3335 57.5988 64.1013H57.3247Z" fill="#44A798"/>
  <path d="M39.7363 43.4008C40.2209 43.241 41.7889 42.1267 40.7484 41.6302C40.4684 41.4965 39.5928 41.8143 39.4453 42.0749C39.2407 42.4372 39.6262 42.876 39.8048 43.263L39.7363 43.4008Z" fill="#44A798"/>
  <path d="M50.4033 36.9669L50.1977 36.8295C50.1114 37.4839 50.9966 38.9344 51.7749 38.2048C52.2605 37.7505 51.2373 36.2616 50.4033 36.9669Z" fill="#44A798"/>
  <path d="M24.4101 129.434C21.7724 131.665 19.2096 133.958 16.7793 136.354C14.3605 138.758 12.0626 141.264 10.0642 143.942C8.08596 146.617 6.34672 149.465 5.31872 152.432C4.82056 153.912 4.49229 155.409 4.4491 156.852C4.40015 158.298 4.65642 159.663 5.18914 160.881C6.24017 163.326 8.57549 165.129 11.3542 166.283C14.1388 167.441 17.2947 168.057 20.5083 168.311C22.1151 168.452 23.7478 168.484 25.3834 168.492C26.2041 168.475 27.0247 168.455 27.8454 168.423C28.6689 168.368 29.4925 168.331 30.316 168.262C33.6131 168.003 36.9217 167.559 40.2102 166.94C43.5044 166.344 46.7842 165.598 50.0438 164.751C53.315 163.939 56.5458 162.949 59.7767 161.941C63.0104 160.936 66.2009 159.787 69.403 158.646C72.5849 157.454 75.7668 156.247 78.9199 154.951C85.2347 152.383 91.4833 149.607 97.6945 146.704L102.345 144.501L106.987 142.257L116.268 137.699C114.888 138.741 113.486 139.743 112.092 140.766C110.678 141.756 109.259 142.741 107.83 143.717C106.396 144.682 104.945 145.618 103.5 146.571L99.0997 149.324C93.188 152.924 87.1035 156.256 80.8549 159.297C74.6121 162.35 68.1849 165.054 61.5994 167.384C60.7816 167.689 59.9494 167.957 59.1172 168.23C58.2851 168.501 57.4615 168.789 56.6207 169.037L54.1097 169.808L51.5786 170.528C48.1894 171.441 44.7627 172.245 41.2929 172.893C34.3445 174.116 27.2004 174.825 19.9353 174.01C16.3186 173.587 12.6414 172.803 9.14563 171.127C7.40639 170.292 5.7017 169.232 4.21586 167.815C2.73577 166.407 1.49757 164.619 0.777679 162.632C0.0433953 160.648 -0.129377 158.517 0.0865885 156.538C0.302554 154.548 0.878463 152.691 1.64154 150.977C3.17634 147.545 5.40223 144.662 7.79801 142.05C10.2255 139.461 12.8948 137.174 15.6851 135.09C18.4754 132.996 21.401 131.13 24.4101 129.434Z" fill="#44A798"/>
  <path d="M129.301 140.399C136.853 140.399 142.976 134.187 142.976 126.525C142.976 118.862 136.853 112.65 129.301 112.65C121.748 112.65 115.625 118.862 115.625 126.525C115.625 134.187 121.748 140.399 129.301 140.399Z" fill="#A86700"/>
  <path d="M130.437 140.399C137.99 140.399 144.113 134.187 144.113 126.525C144.113 118.862 137.99 112.65 130.437 112.65C122.884 112.65 116.761 118.862 116.761 126.525C116.761 134.187 122.884 140.399 130.437 140.399Z" fill="#FFB93E"/>
  <path d="M133.67 126.282C134.512 125.702 134.924 124.889 134.924 123.861C134.924 122.965 134.61 122.219 133.984 121.605C133.414 121.048 132.735 120.75 131.935 120.702V119.556C131.935 119.299 131.727 119.09 131.471 119.09C131.215 119.09 131.007 119.299 131.007 119.556V120.694H130.444V119.556C130.444 119.299 130.236 119.09 129.98 119.09C129.724 119.09 129.516 119.299 129.516 119.556V120.694H127.984C127.481 120.694 127.074 121.104 127.074 121.608V131.388C127.074 131.893 127.481 132.303 127.984 132.303H129.516V133.397C129.516 133.655 129.724 133.864 129.98 133.864C130.236 133.864 130.444 133.655 130.444 133.397V132.303H131.007V133.397C131.007 133.655 131.215 133.864 131.471 133.864C131.727 133.864 131.935 133.655 131.935 133.397V132.303H132.054C132.994 132.303 133.786 131.988 134.429 131.358C135.072 130.727 135.403 129.948 135.403 129.019C135.403 127.775 134.726 126.796 133.67 126.282ZM128.607 122.709C128.607 122.392 128.861 122.136 129.176 122.136H131.691C131.775 122.136 131.857 122.142 131.935 122.154C132.306 122.206 132.622 122.38 132.895 122.667C133.242 123.016 133.406 123.43 133.406 123.912C133.406 124.822 132.786 125.552 131.935 125.67C131.855 125.68 131.774 125.687 131.691 125.687H129.176C128.861 125.687 128.607 125.431 128.607 125.114V122.709ZM132.054 130.86H129.067C128.812 130.86 128.607 130.654 128.607 130.398V127.559C128.607 127.303 128.812 127.096 129.067 127.096H132.054C132.565 127.096 132.994 127.279 133.341 127.643C133.704 128.008 133.885 128.456 133.885 128.97C133.885 130.03 133.093 130.86 132.054 130.86Z" fill="#A86700"/>
  <path d="M130.626 117.954C131.122 117.954 131.525 117.551 131.525 117.054C131.525 116.557 131.122 116.154 130.626 116.154C130.129 116.154 129.727 116.557 129.727 117.054C129.727 117.551 130.129 117.954 130.626 117.954Z" fill="#A86700"/>
  <path d="M130.626 136.799C131.122 136.799 131.525 136.397 131.525 135.9C131.525 135.403 131.122 135 130.626 135C130.129 135 129.727 135.403 129.727 135.9C129.727 136.397 130.129 136.799 130.626 136.799Z" fill="#A86700"/>
  <path fill-rule="evenodd" clip-rule="evenodd" d="M130.435 115.349C124.267 115.349 119.267 120.353 119.267 126.525C119.267 132.696 124.267 137.7 130.435 137.7C136.602 137.7 141.602 132.696 141.602 126.525C141.602 120.353 136.602 115.349 130.435 115.349ZM118.226 126.525C118.226 119.777 123.692 114.308 130.435 114.308C137.177 114.308 142.643 119.777 142.643 126.525C142.643 133.272 137.177 138.741 130.435 138.741C123.692 138.741 118.226 133.272 118.226 126.525Z" fill="#A86700"/>
  <path d="M20.5907 35.943C30.3252 35.943 38.2166 27.8969 38.2166 17.9715C38.2166 8.04611 30.3252 0 20.5907 0C10.8562 0 2.96484 8.04611 2.96484 17.9715C2.96484 27.8969 10.8562 35.943 20.5907 35.943Z" fill="#A86700"/>
  <path d="M22.0553 35.943C31.7898 35.943 39.6812 27.8969 39.6812 17.9715C39.6812 8.04611 31.7898 0 22.0553 0C12.3208 0 4.42944 8.04611 4.42944 17.9715C4.42944 27.8969 12.3208 35.943 22.0553 35.943Z" fill="#FFB93E"/>
  <path d="M26.2242 17.6584C27.3088 16.9063 27.8399 15.8538 27.8399 14.5216C27.8399 13.3614 27.436 12.3957 26.6282 11.6002C25.8942 10.8776 25.0193 10.492 23.988 10.4295V8.94623C23.988 8.61275 23.7199 8.3418 23.3899 8.3418C23.0599 8.3418 22.7917 8.61275 22.7917 8.94623V10.4191H22.0664V8.94623C22.0664 8.61275 21.7982 8.3418 21.4682 8.3418C21.1382 8.3418 20.8701 8.61275 20.8701 8.94623V10.4191H18.8951C18.2471 10.4191 17.7229 10.9506 17.7229 11.6036V24.2724C17.7229 24.9255 18.2471 25.4569 18.8951 25.4569H20.8701V26.8742C20.8701 27.2077 21.1382 27.4787 21.4682 27.4787C21.7982 27.4787 22.0664 27.2077 22.0664 26.8742V25.4569H22.7917V26.8742C22.7917 27.2077 23.0599 27.4787 23.3899 27.4787C23.7199 27.4787 23.988 27.2077 23.988 26.8742V25.4569H24.141C25.3528 25.4569 26.3738 25.0488 27.2022 24.2325C28.0307 23.4161 28.457 22.407 28.457 21.2033C28.457 19.5915 27.5855 18.3236 26.2242 17.6584ZM19.6978 13.0296C19.6978 12.6197 20.0261 12.288 20.4318 12.288H23.6735C23.7818 12.288 23.8866 12.2949 23.988 12.3106C24.4659 12.3783 24.8732 12.6041 25.2256 12.9758C25.6725 13.4274 25.8839 13.9641 25.8839 14.5876C25.8839 15.7669 25.0846 16.7118 23.988 16.8646C23.8849 16.8785 23.7801 16.8872 23.6735 16.8872H20.4318C20.0261 16.8872 19.6978 16.5555 19.6978 16.1456V13.0296ZM24.141 23.5881H20.2908C19.9625 23.5881 19.6978 23.3206 19.6978 22.9888V19.3119C19.6978 18.9801 19.9625 18.7127 20.2908 18.7127H24.141C24.7993 18.7127 25.3528 18.9489 25.7997 19.4213C26.2672 19.8937 26.501 20.4739 26.501 21.1391C26.501 22.5129 25.48 23.5881 24.141 23.5881Z" fill="#A86700"/>
  <path d="M22.3002 6.86984C22.9401 6.86984 23.4589 6.34807 23.4589 5.70445C23.4589 5.06082 22.9401 4.53906 22.3002 4.53906C21.6602 4.53906 21.1414 5.06082 21.1414 5.70445C21.1414 6.34807 21.6602 6.86984 22.3002 6.86984Z" fill="#A86700"/>
  <path d="M22.3002 31.281C22.9401 31.281 23.4589 30.7592 23.4589 30.1156C23.4589 29.472 22.9401 28.9502 22.3002 28.9502C21.6602 28.9502 21.1414 29.472 21.1414 30.1156C21.1414 30.7592 21.6602 31.281 22.3002 31.281Z" fill="#A86700"/>
  <path fill-rule="evenodd" clip-rule="evenodd" d="M22.0516 3.49588C14.1023 3.49588 7.65817 9.9767 7.65817 17.9712C7.65817 25.9657 14.1023 32.4465 22.0516 32.4465C30.0009 32.4465 36.4451 25.9657 36.4451 17.9712C36.4451 9.9767 30.0009 3.49588 22.0516 3.49588ZM6.31641 17.9712C6.31641 9.23145 13.3613 2.14648 22.0516 2.14648C30.7419 2.14648 37.7868 9.23145 37.7868 17.9712C37.7868 26.711 30.7419 33.7959 22.0516 33.7959C13.3613 33.7959 6.31641 26.711 6.31641 17.9712Z" fill="#A86700"/>
  <rect x="19.937" y="126.557" width="5.36426" height="8.41063" fill="white"/>
  <rect x="163.974" y="48.2314" width="5.36426" height="8.41063" transform="rotate(-21.9485 163.974 48.2314)" fill="white"/>
  <path d="M168.025 77.8988C174.504 77.8988 179.757 72.6468 179.757 66.1682C179.757 59.6895 174.504 54.4375 168.025 54.4375C161.545 54.4375 156.292 59.6895 156.292 66.1682C156.292 72.6468 161.545 77.8988 168.025 77.8988Z" fill="#44A798"/>
  <path d="M164.733 69.4588L170.808 63.3848" stroke="white" stroke-width="13" stroke-linecap="round" stroke-linejoin="round"/>
  <mask id="path-33-inside-1" fill="white">
    <path d="M171.17 66.8331L170.511 66.8111L170.629 63.5621L167.382 63.6807L167.358 63.0217L171.315 62.8789L171.17 66.8331Z"/>
  </mask>
  <path d="M171.17 66.8331L170.737 79.8259L183.686 80.2574L184.161 67.3095L171.17 66.8331ZM170.511 66.8111L157.519 66.3367L157.043 79.3695L170.078 79.8039L170.511 66.8111ZM170.629 63.5621L183.621 64.0365L184.131 50.0602L170.155 50.5708L170.629 63.5621ZM167.382 63.6807L154.391 64.1571L154.867 77.1466L167.856 76.6721L167.382 63.6807ZM167.358 63.0217L166.889 50.0302L153.89 50.4992L154.366 63.4981L167.358 63.0217ZM171.315 62.8789L184.306 63.3554L184.818 49.3832L170.846 49.8874L171.315 62.8789ZM171.603 53.8403L170.944 53.8183L170.078 79.8039L170.737 79.8259L171.603 53.8403ZM183.502 67.2855L183.621 64.0365L157.638 63.0877L157.519 66.3367L183.502 67.2855ZM170.155 50.5708L166.907 50.6894L167.856 76.6721L171.104 76.5534L170.155 50.5708ZM180.373 63.2044L180.349 62.5453L154.366 63.4981L154.391 64.1571L180.373 63.2044ZM167.826 76.0132L171.784 75.8705L170.846 49.8874L166.889 50.0302L167.826 76.0132ZM158.323 62.4025L158.178 66.3566L184.161 67.3095L184.306 63.3554L158.323 62.4025Z" fill="white" mask="url(#path-33-inside-1)"/>
  <path d="M25.3101 154.257C31.7898 154.257 37.0427 149.005 37.0427 142.527C37.0427 136.048 31.7898 130.796 25.3101 130.796C18.8303 130.796 13.5774 136.048 13.5774 142.527C13.5774 149.005 18.8303 154.257 25.3101 154.257Z" fill="#FFEEA7"/>
  <path d="M27.8422 146.324C23.7907 146.603 21.8704 145.974 21.8704 143.024C21.8704 139.738 25.3726 139.834 28.8858 140.091" stroke="#44A798" stroke-linecap="round" stroke-linejoin="round"/>
  <mask id="path-37-inside-2" fill="white">
    <path d="M26.5503 142.668L26.1284 142.161L28.6331 140.089L26.3855 137.743L26.8623 137.286L29.5999 140.144L26.5503 142.668Z"/>
  </mask>
  <path d="M26.5503 142.668L26.1284 142.161L28.6331 140.089L26.3855 137.743L26.8623 137.286L29.5999 140.144L26.5503 142.668Z" fill="black"/>
  <path d="M26.5503 142.668L25.7813 143.307L26.4192 144.075L27.1879 143.439L26.5503 142.668ZM26.1284 142.161L25.4911 141.39L24.7186 142.029L25.3594 142.8L26.1284 142.161ZM28.6331 140.089L29.2705 140.86L30.0994 140.174L29.3552 139.397L28.6331 140.089ZM26.3855 137.743L25.6936 137.021L24.9717 137.713L25.6634 138.435L26.3855 137.743ZM26.8623 137.286L27.5844 136.594L26.8925 135.872L26.1703 136.564L26.8623 137.286ZM29.5999 140.144L30.2375 140.914L31.0658 140.229L30.322 139.452L29.5999 140.144ZM27.3193 142.029L26.8974 141.521L25.3594 142.8L25.7813 143.307L27.3193 142.029ZM26.7657 142.931L29.2705 140.86L27.9958 139.319L25.4911 141.39L26.7657 142.931ZM29.3552 139.397L27.1076 137.051L25.6634 138.435L27.911 140.781L29.3552 139.397ZM27.0774 138.465L27.5542 138.008L26.1703 136.564L25.6936 137.021L27.0774 138.465ZM26.1401 137.978L28.8777 140.836L30.322 139.452L27.5844 136.594L26.1401 137.978ZM28.9623 139.374L25.9127 141.898L27.1879 143.439L30.2375 140.914L28.9623 139.374Z" fill="#44A798" mask="url(#path-37-inside-2)"/>
</svg>
