<svg width="337" height="266" viewBox="0 0 337 266" fill="none" xmlns="http://www.w3.org/2000/svg">
  <path d="M352.133 4.56774V3.34715C333.916 19.2452 320.489 54.9778 317.743 94.9824C317.01 105.815 312.952 112.803 305.995 115.214C300.868 116.983 294.43 116.251 287.35 113.047C280.301 109.843 273.283 104.533 267.058 97.6677C264.678 95.0435 261.657 92.053 258.422 88.8795C243.44 74.141 222.965 53.9403 232.363 36.0283C237.52 26.2331 247.254 24.4022 257.538 22.4798C267.974 20.5269 278.776 18.5129 283.963 7.37508C285.519 4.01847 286.618 0.143122 287.259 -4.25098H285.397C284.787 -0.131509 283.75 3.46921 282.285 6.61221C277.494 16.8956 267.607 18.757 257.171 20.7099C246.888 22.6324 236.269 24.6158 230.715 35.2044C223.392 49.18 232.638 64.0101 244.172 76.8873C252.32 87.1097 262.511 96.4776 268.462 103.374C288.907 127.114 319.787 134.438 323.632 102.916C327.446 71.8829 338.066 43.5959 352.102 25.7449L352.133 4.56774Z" fill="#FFE161"/>
  <path d="M20.1035 59.523C19.5848 63.0932 18.4862 66.816 17.3267 70.7524C15.3432 77.4961 13.3293 84.3924 14.0006 91.0751C13.4208 97.0254 13.8785 102.884 16.8384 108.255C20.3781 114.663 28.9527 116.768 35.2692 114.114C55.0732 105.783 56.1107 75.9704 78.6915 71.8509H78.722C88.151 69.2877 98.9226 74.5972 105.972 80.4255C117.903 90.3427 127.728 108.407 129.742 124.733C129.712 125.465 129.712 126.228 129.681 126.96C129.498 133.49 129.315 140.722 129.803 147.893C129.864 160.099 131.054 172.793 137.066 182.497C146.525 197.815 170.815 193.543 166.512 179.14C167.031 178.469 167.489 177.736 167.794 176.974C169.045 173.983 169.32 168.887 163.369 161.808C156.931 154.118 154.032 146.947 154.185 139.258C154.337 132.483 156.87 125.16 162.362 115.517C167.245 106.973 174.446 98.7648 182.105 90.0986C193.884 76.7027 206.09 62.8186 209.538 47.1341C211.643 37.522 211.338 26.5062 208.592 14.3614C207.249 8.4111 205.327 2.15561 202.825 -4.31348H200.872C203.466 2.30819 205.449 8.68573 206.822 14.7581C209.507 26.6283 209.813 37.3999 207.768 46.7374C204.412 61.9642 192.389 75.6652 180.732 88.9085C173.043 97.6662 165.75 105.936 160.776 114.632C155.1 124.55 152.506 132.148 152.354 139.227C152.171 147.405 155.222 154.942 161.966 162.998C166.207 168.063 167.611 172.641 166.085 176.272C164.712 179.506 161.081 181.673 156.321 182.039C150.919 182.466 143.016 180.3 138.408 172.885C130.566 160.221 131.085 141.79 131.482 126.991C131.512 125.465 131.573 123.97 131.604 122.505C132 104.807 121.473 82.4395 107.131 70.5388C99.9296 64.5579 88.7918 59.1263 79.0577 61.7811H79.0271C69.293 64.5274 62.7324 74.6277 56.4159 84.4229C51.8387 91.4718 47.5361 98.124 42.2266 101.969C37.1612 105.661 31.8821 107.126 27.3965 106.119C23.6127 105.264 20.5307 102.762 18.2421 98.6427C13.5124 90.1291 16.3502 80.517 19.066 71.2406C20.2561 67.2432 21.3546 63.4594 21.9039 59.7671C23.4601 49.1481 22.27 36.6371 18.5778 24.5533C15.0686 13.1409 9.48443 3.04054 2.67968 -4.28296H0.146973C7.28738 2.91848 13.1767 13.2934 16.8079 25.1026C20.4086 36.7591 21.5987 49.3006 20.1035 59.523Z" fill="#FFE161"/>
  <path d="M324.882 136.703C316.186 153.394 307.977 169.201 298.182 174.602C292.14 177.928 286.953 178.569 282.315 176.586C269.834 171.154 263.762 147.078 258.391 125.84C254.363 109.82 250.854 95.9965 245.178 90.4734C238.374 83.8517 231.111 81.258 223.605 82.7532C202.122 86.9947 184.912 123.002 180.152 133.957C172.584 151.319 173.835 163.739 184.576 178.355C185.919 180.186 187.506 182.109 189.184 184.153C196.538 193.124 205.662 204.323 201.451 215.888C198.155 224.951 200.2 234.319 207.371 242.955C213.382 250.156 222.811 256.534 233.247 260.409C237.031 261.813 240.967 263.033 244.782 264.223C258.94 268.617 272.306 272.798 280.819 286.041C283.566 290.313 286.281 295.409 288.692 300.963H290.676C288.143 295.013 285.274 289.581 282.345 285.034C273.465 271.242 259.154 266.787 245.3 262.454C241.517 261.263 237.611 260.073 233.857 258.67C223.696 254.916 214.542 248.753 208.744 241.765C204.045 236.119 199.254 227.148 203.129 216.499C207.706 203.957 198.216 192.331 190.557 182.994C188.909 180.98 187.353 179.057 186.011 177.257C175.727 163.281 174.537 151.35 181.8 134.689C184.515 128.464 190.252 116.38 198.186 105.334C206.944 93.1892 215.61 86.2014 223.91 84.5536C230.806 83.2109 237.519 85.6216 243.866 91.7855C249.176 96.9425 252.776 111.223 256.591 126.298C262.053 147.963 268.247 172.497 281.552 178.264C286.678 180.491 292.537 179.79 299.037 176.219C309.32 170.544 317.65 154.523 326.469 137.557C334.342 122.422 342.428 106.921 352.101 98.4987V96.1186C341.635 104.51 333.152 120.774 324.882 136.703Z" fill="#FFE161"/>
  <path d="M335.655 171.241C330.742 181.158 326.073 190.526 319.909 195.011C310.267 202.03 299.22 204.776 288.784 202.732C278.135 200.657 268.675 193.73 262.206 183.263C259.612 179.052 257.11 170.844 254.455 162.117C249.146 144.662 243.134 124.889 232.698 122.265C229.281 121.41 226.199 121.807 223.544 123.455C216.434 127.849 213.718 140.268 211.552 150.216C210.606 154.519 209.813 158.241 208.806 160.53C203.404 172.919 204.32 181.799 211.979 192.235C213.139 193.791 214.42 195.317 215.793 196.964C219.364 201.206 223.086 205.57 224.154 210.604C224.673 213.076 224.215 215.426 223.727 217.928C223.147 220.918 222.537 224.031 223.788 227.204C228.671 239.837 246.277 244.476 260.436 248.198C264.373 249.236 268.095 250.212 271.086 251.25C290.554 258.024 317.193 267.27 329.918 287.043C332.39 290.888 334.8 295.649 336.814 300.836H338.767C336.662 295.252 334.098 290.125 331.444 286.036C318.383 265.744 291.378 256.346 271.666 249.511C268.584 248.443 264.83 247.466 260.863 246.398C247.101 242.767 229.983 238.281 225.436 226.503C224.399 223.787 224.917 221.101 225.467 218.233C225.955 215.67 226.474 212.985 225.894 210.177C224.734 204.685 220.889 200.138 217.167 195.744C215.824 194.157 214.542 192.631 213.444 191.136C206.212 181.31 205.388 172.949 210.484 161.232C211.552 158.791 212.376 154.976 213.352 150.582C215.458 140.94 218.082 128.978 224.521 124.981C226.779 123.577 229.281 123.272 232.271 124.004C241.731 126.384 247.834 146.463 252.716 162.636C255.523 171.851 257.934 179.815 260.65 184.209C267.424 195.103 277.28 202.335 288.449 204.502C299.403 206.638 310.938 203.8 321.008 196.476C327.538 191.716 332.298 182.165 337.302 172.034C341.727 163.093 346.274 153.969 352.163 148.111V145.547C345.419 151.559 340.476 161.507 335.655 171.241Z" fill="#FFE161"/>
  <path d="M338.919 203.402L338.003 204.164C326.377 213.654 313.225 224.396 297.419 219.422C293.513 218.201 289.699 216.157 286.037 214.204C277.95 209.901 269.589 205.446 259.489 209.169C253.356 211.427 251.738 214.631 251.433 216.95C250.976 220.673 253.6 224.701 258.818 228.24C266.721 233.611 276.181 236.022 285.335 238.341C289.76 239.47 294.337 240.629 298.578 242.094C315.666 248.044 338.278 255.887 352.162 271.113V268.459C337.912 253.873 315.911 246.214 299.189 240.385C294.855 238.89 290.248 237.7 285.793 236.571C276.791 234.282 267.514 231.902 259.855 226.715C255.309 223.602 252.898 220.124 253.264 217.164C253.569 214.6 255.949 212.434 260.13 210.878C269.467 207.429 277.096 211.518 285.182 215.821C288.936 217.804 292.811 219.879 296.869 221.161H296.9C313.652 226.41 327.201 215.333 339.193 205.568L340.109 204.805C340.414 204.561 340.841 204.195 341.36 203.768C345.296 200.503 348.897 197.665 352.162 195.285V192.996C347.981 195.987 343.801 199.343 340.17 202.364C339.651 202.822 339.224 203.157 338.919 203.402Z" fill="#FFE161"/>
  <path d="M51.936 122.684C48.555 131.11 47.3891 138.757 48.6198 144.215C50.3739 151.984 56.3517 156.261 62.1503 160.372C64.2177 161.866 66.3954 163.421 68.2971 165.095C73.2642 169.477 75.8473 174.73 78.594 180.3C81.458 186.104 84.3943 192.099 90.2443 196.964L90.3771 197.045C93.5188 198.95 96.4417 200.238 99.0596 200.912C109.782 205.584 122.142 205.787 126.257 195.172C131.429 181.796 113.042 166.802 108.289 155.265C101.818 139.606 110.794 124.135 106.229 108.077C102.967 96.5886 90.3208 89.1421 85.1478 89.9297C84.5251 90.0191 83.8834 90.1741 83.2641 90.3497C82.876 90.3651 82.5104 90.4011 82.124 90.4596C76.8216 91.2523 71.111 94.8252 65.5821 100.809C60.1343 106.661 55.1805 114.631 51.936 122.684ZM80.245 179.458C77.5448 173.972 74.7515 168.317 69.5154 163.687C67.5465 161.951 65.3464 160.375 63.2135 158.861C57.458 154.748 52.0129 150.839 50.4172 143.798C48.0624 133.396 55.6188 114.246 66.9044 102.031C72.1434 96.3607 77.4952 92.9964 82.3681 92.2638C87.5842 91.4745 91.656 96.1505 94.4888 106.08C96.4451 112.956 97.3128 120.155 98.1289 127.141C99.2527 136.447 100.388 146.054 104.115 155.106C105.476 158.399 107.331 161.608 109.137 164.689C113.792 172.646 118.171 180.182 114.605 189.392C113.488 192.265 112.133 194.586 110.621 196.223C106.273 200.929 99.9583 200.704 91.3316 195.517C85.8575 190.875 82.9935 185.071 80.245 179.458Z" fill="#FFE161"/>
  <path d="M269.497 45.431C269.009 46.2244 268.643 47.1093 268.368 48.0553C266.66 54.0361 268.429 61.085 273.19 67.371C278.743 74.6945 287.165 79.4548 294.641 79.4548C295.435 79.4548 296.259 79.3937 297.022 79.3022C300.317 78.8445 302.941 77.1356 304.864 74.2062C308.678 68.3475 308.77 58.3692 306.939 51.9306C305.871 48.2078 302.728 44.8207 298.09 42.4101C293.879 40.213 288.691 38.9619 283.839 38.9619C277.157 38.9924 271.908 41.342 269.497 45.431ZM305.169 52.4188C306.664 57.5758 307.061 67.432 303.308 73.1993C301.69 75.6709 299.493 77.1051 296.747 77.4713C296.045 77.5628 295.343 77.6239 294.611 77.6239C287.684 77.6239 279.811 73.1687 274.624 66.2725C270.23 60.4442 268.582 53.9751 270.108 48.5435C270.321 47.7501 270.657 47.0178 271.054 46.3464C273.159 42.8067 277.797 40.7928 283.839 40.7928C292.505 40.8233 303.125 45.2479 305.169 52.4188Z" fill="#FFE161"/>
  <path d="M167.282 42.8256C167.548 41.9329 167.673 40.9834 167.693 39.9986C167.796 33.7792 164.262 27.4286 158.037 22.5889C150.777 16.9523 141.41 14.534 134.188 16.4689C133.422 16.6743 132.642 16.9465 131.929 17.2323C128.864 18.5274 126.772 20.8572 125.673 24.1844C123.505 30.8307 125.999 40.4927 129.434 46.238C131.429 49.5575 135.342 52.0158 140.446 53.1438C145.082 54.1761 150.416 54.042 155.103 52.7862C161.55 51.0271 166.011 47.3992 167.282 42.8256ZM131.017 45.3084C128.238 40.7141 125.304 31.2964 127.437 24.7542C128.359 21.9482 130.11 19.9943 132.668 18.9298C133.322 18.6597 133.984 18.4191 134.692 18.2295C141.383 16.4367 150.14 18.7024 156.936 24.0211C162.689 28.5135 165.955 34.3357 165.887 39.9771C165.886 40.7988 165.751 41.593 165.542 42.3442C164.424 46.3082 160.465 49.454 154.629 51.0177C146.25 53.2312 134.848 51.7058 131.017 45.3084Z" fill="#FFE161"/>
  <path d="M140.317 90.3712C141.065 91.6667 142.584 93.1505 145.514 92.8405C148.256 92.5531 152.304 90.5899 154.176 88.6457C156.879 85.8473 156.241 80.2559 154.072 76.4989C152.527 73.8216 150.355 72.2541 148.11 72.2548C147.674 72.2474 147.219 72.3082 146.768 72.4247C144.402 73.0135 142.208 75.3457 140.738 78.7849C139.242 82.3262 138.534 87.2835 140.317 90.3712ZM147.133 73.8548C147.464 73.7792 147.785 73.7375 148.098 73.7299C149.808 73.7502 151.493 75.0229 152.777 77.2469C155.17 81.3925 154.8 85.838 153.098 87.6269C151.501 89.2978 147.733 91.0989 145.347 91.3538C143.637 91.5346 142.385 90.9619 141.612 89.6232C140.303 87.3561 140.52 83.1431 142.123 79.3385C143.387 76.3919 145.252 74.3364 147.133 73.8548Z" fill="#FFE161"/>
  <path d="M61.12 58.3739C66.1244 58.4959 71.0983 56.3904 76.4078 51.9658C84.7078 45.0085 89.4986 34.8777 94.1368 25.113C94.4114 24.5027 94.686 23.9229 94.9912 23.3432C105.122 2.01347 114.704 -15.3188 128.557 -30.5151C129.168 -31.1864 129.839 -31.9492 130.602 -32.7731C131.7 -33.9937 132.951 -35.3974 134.324 -36.8926L131.853 -36.8926C130.907 -35.8551 130.052 -34.8786 129.259 -33.9937C128.527 -33.1698 127.825 -32.407 127.245 -31.7356C113.239 -16.3563 103.596 1.09804 93.3739 22.5803C93.0993 23.1601 92.8246 23.7704 92.5195 24.3807C87.9728 33.9928 83.2736 43.91 75.2788 50.6232C70.3354 54.7427 65.7277 56.7261 61.2115 56.604C55.2917 56.482 50.2873 54.9257 46.7476 52.1184C42.9028 49.0669 40.9804 44.7644 41.1024 39.3023C41.2855 29.6292 45.5881 20.8715 49.7686 12.3884C53.9186 3.93588 58.1906 -4.76077 58.6483 -14.617C59.0145 -22.9475 57.916 -30.6371 55.5358 -36.8926L53.5829 -36.8926C56.0241 -30.7897 57.1836 -23.1 56.8174 -14.7085C56.3902 -5.249 52.1792 3.29509 48.1208 11.5645C43.8793 20.2002 39.4852 29.1409 39.2716 39.2412C38.9969 50.7147 47.3884 58.0687 61.12 58.3739Z" fill="#FFE161"/>
</svg>
