<svg width="694" height="825" viewBox="0 0 694 825" fill="none" xmlns="http://www.w3.org/2000/svg">
  <g opacity="0.08">
    <path d="M-1.04697 823.355L-3.89951 823.35C33.332 780.843 116.897 749.616 210.401 743.367C235.72 741.702 252.068 732.247 257.731 715.997C261.889 704.024 260.205 688.974 252.747 672.415C245.289 655.928 232.91 639.504 216.891 624.927C210.768 619.353 203.792 612.281 196.389 604.708C162.008 569.631 114.885 521.694 72.9845 543.582C50.071 555.593 45.751 578.334 41.2147 602.359C36.6064 626.74 31.854 651.976 5.80257 664.052C-2.04851 667.675 -11.11 670.226 -21.3818 671.705L-21.374 667.355C-11.7441 665.946 -3.32466 663.536 4.02684 660.127C28.0798 648.974 32.4718 625.876 37.08 601.495C41.6163 577.471 46.2967 552.662 71.066 539.728C103.759 522.672 138.378 544.343 168.423 571.354C192.279 590.438 214.129 614.296 230.221 628.231C285.616 676.112 302.6 748.312 228.917 757.164C156.375 765.947 90.2226 790.644 48.4448 823.373L-1.04697 823.355Z" fill="#53BDB1"/>
    <path d="M128.798 47.6242C137.144 46.427 145.849 43.8755 155.054 41.1822C170.822 36.5754 186.948 31.8979 202.562 33.4951C216.471 32.1654 230.161 33.2599 242.7 40.2C257.661 48.4995 262.545 68.5475 256.314 83.2982C236.762 129.545 167.084 131.844 157.361 184.598L157.361 184.67C151.331 206.695 163.694 231.891 177.285 248.389C200.411 276.315 242.587 299.354 280.731 304.13C282.443 304.062 284.226 304.065 285.937 303.997C301.199 303.596 318.101 303.199 334.858 304.371C363.383 304.565 393.044 307.4 415.696 321.49C451.456 343.662 441.369 400.409 407.727 390.293C406.156 391.502 404.443 392.569 402.659 393.279C395.665 396.19 383.754 396.81 367.235 382.874C349.291 367.795 332.544 360.989 314.573 361.313C298.741 361.641 281.615 367.529 259.056 380.325C239.068 391.699 219.854 408.494 199.568 426.357C168.212 453.827 135.713 482.294 99.0429 490.286C76.5702 495.166 50.8273 494.406 22.4562 487.936C8.55576 484.773 -6.05537 480.254 -21.1632 474.379L-21.155 469.815C-5.69092 475.905 9.20521 480.567 23.3908 483.802C51.1204 490.128 76.2927 490.887 98.1233 486.148C133.723 478.368 165.794 450.329 196.793 423.143C217.293 405.209 236.649 388.2 256.995 376.613C280.196 363.391 297.964 357.361 314.509 357.035C333.622 356.641 351.224 363.805 370.022 379.599C381.842 389.533 392.533 392.833 401.026 389.282C408.591 386.087 413.669 377.61 414.545 366.487C415.567 353.866 410.537 335.386 393.227 324.587C363.665 306.206 320.59 307.34 286.001 308.204C282.435 308.269 278.94 308.405 275.517 308.471C234.154 309.323 181.926 284.625 154.174 251.057C140.227 234.202 127.58 208.149 133.826 185.411L133.826 185.34C140.286 162.603 163.918 147.313 186.836 132.593C203.329 121.926 218.894 111.899 227.902 99.5063C236.552 87.6839 239.998 75.3528 237.663 64.8655C235.682 56.019 229.848 48.8057 220.23 43.4397C200.354 32.3501 177.878 38.9416 156.187 45.2492C146.84 48.0135 137.993 50.5647 129.361 51.8327C104.538 55.4248 75.3041 52.5906 47.0796 43.9105C20.4232 35.6611 -3.15792 22.5679 -20.2443 6.63399L-20.2336 0.714973C-3.43387 17.4328 20.7878 31.2403 48.3707 39.7766C75.5972 48.2409 104.902 51.0753 128.798 47.6242Z" fill="#53BDB1"/>
    <path d="M307.874 760.232C346.92 739.978 383.895 720.862 396.559 697.993C404.358 683.887 405.877 671.766 401.262 660.918C388.621 631.728 332.38 617.435 282.768 604.794C245.346 595.312 213.056 587.053 200.172 573.765C184.726 557.834 178.695 540.851 182.221 523.314C192.225 473.127 276.447 433.059 302.069 421.98C342.679 404.368 371.698 407.344 405.812 432.509C410.085 435.654 414.571 439.371 419.342 443.301C440.277 460.526 466.41 481.896 493.456 472.104C514.65 464.44 536.534 469.258 556.686 486.053C573.49 500.133 588.355 522.195 597.368 546.601C600.632 555.45 603.468 564.655 606.233 573.574C616.442 606.682 626.155 637.935 657.069 657.887C667.042 664.324 678.94 670.692 691.908 676.349L691.9 680.985C678.005 675.041 665.323 668.314 654.71 661.449C622.514 640.638 612.162 607.173 602.094 574.779C599.329 565.931 596.565 556.798 593.3 548.02C584.572 524.257 570.205 502.837 553.899 489.257C540.726 478.251 519.78 467.017 494.875 476.029C465.546 486.673 438.415 464.445 416.626 446.506C411.926 442.646 407.44 439.001 403.238 435.856C370.62 411.764 342.742 408.932 303.774 425.834C289.214 432.155 260.95 445.51 235.101 464.005C206.681 484.421 190.313 504.644 186.427 524.034C183.26 540.146 188.866 555.845 203.244 570.704C215.274 583.134 248.633 591.61 283.846 600.588C334.455 613.445 391.765 628.025 405.187 659.143C410.371 671.133 408.706 684.822 400.335 699.997C387.027 724.005 349.552 743.406 309.865 763.944C274.46 782.278 238.198 801.111 218.475 823.682L212.912 823.672C232.568 799.247 270.614 779.49 307.874 760.232Z" fill="#53BDB1"/>
    <path d="M388.539 785.547C411.736 774.108 433.649 763.236 444.158 748.85C460.601 726.345 467.066 700.541 462.333 676.143C457.528 651.246 441.38 629.109 416.947 613.947C407.117 607.867 387.944 601.985 367.56 595.743C326.791 583.261 280.605 569.128 274.516 544.728C272.534 536.737 273.474 529.536 277.336 523.339C287.636 506.741 316.672 500.447 339.929 495.426C349.988 493.234 358.692 491.395 364.045 489.052C393.021 476.482 413.769 478.658 438.126 496.602C441.758 499.319 445.318 502.32 449.163 505.537C459.061 513.898 469.243 522.617 481.005 525.134C486.779 526.357 492.272 525.297 498.122 524.167C505.113 522.825 512.39 521.412 519.801 524.349C549.304 535.812 560.069 576.98 568.71 610.085C571.118 619.289 573.384 627.994 575.796 634.987C591.545 680.513 613.04 742.809 659.198 772.631C668.173 778.423 679.287 784.077 691.402 788.806L691.394 793.37C678.352 788.426 666.383 782.414 656.838 776.192C609.47 745.584 587.619 682.432 571.729 636.334C569.246 629.127 566.98 620.351 564.5 611.076C556.072 578.898 545.662 538.872 518.154 528.197C511.812 525.761 505.534 526.962 498.828 528.233C492.836 529.363 486.558 530.564 479.999 529.197C467.168 526.464 456.558 517.459 446.305 508.741C442.602 505.596 439.042 502.594 435.553 500.021C412.62 483.078 393.084 481.117 365.678 492.977C359.968 495.462 351.051 497.372 340.777 499.635C318.233 504.515 290.267 510.597 280.898 525.627C277.608 530.899 276.884 536.745 278.583 543.737C284.105 565.854 331.004 580.202 368.779 591.681C390.304 598.28 408.907 603.948 419.164 610.313C444.595 626.191 461.454 649.256 466.47 675.366C471.416 700.977 464.735 727.921 447.577 751.424C436.424 766.665 414.083 777.749 390.386 789.402C369.472 799.704 348.13 810.291 334.413 824.03L328.423 824.019C342.5 808.284 365.769 796.774 388.539 785.547Z" fill="#53BDB1"/>
    <path d="M463.694 793.311L465.48 791.175C487.708 764.044 512.866 733.354 501.309 696.392C498.473 687.259 493.711 678.336 489.163 669.77C479.142 650.854 468.765 631.295 477.508 607.706C482.812 593.382 490.306 589.616 495.727 588.912C504.43 587.859 513.832 594.009 522.082 606.218C534.6 624.711 540.194 646.828 545.575 668.232C548.195 678.578 550.885 689.28 554.29 699.198C568.124 739.159 586.356 792.036 621.882 824.548L615.678 824.536C581.651 791.171 563.844 739.722 550.294 700.617C546.818 690.484 544.056 679.711 541.437 669.295C536.126 648.247 530.603 626.558 518.512 608.636C511.257 597.997 503.138 592.349 496.219 593.192C490.227 593.894 485.154 599.448 481.499 609.211C473.401 631.018 482.925 648.864 492.946 667.78C497.565 676.56 502.398 685.626 505.376 695.116L505.376 695.187C517.571 734.361 491.627 765.977 468.756 793.962L466.969 796.098C466.397 796.81 465.54 797.807 464.539 799.018C456.892 808.203 450.245 816.606 444.668 824.227L439.32 824.217C446.326 814.46 454.188 804.704 461.264 796.23C462.336 795.02 463.122 794.023 463.694 793.311Z" fill="#53BDB1"/>
    <path d="M276.274 122.286C295.979 114.42 313.856 111.727 326.606 114.627C344.755 118.759 354.725 132.748 364.308 146.317C367.792 151.154 371.417 156.25 375.321 160.702C385.54 172.329 397.805 178.387 410.812 184.83C424.363 191.548 438.361 198.436 449.706 212.128L449.895 212.439C454.335 219.789 457.333 226.625 458.896 232.746C469.77 257.825 470.19 286.711 445.367 296.283C414.083 308.313 379.121 265.28 352.178 254.122C315.61 238.933 279.416 259.844 241.907 249.107C215.072 241.436 197.723 211.85 199.586 199.764C199.797 198.309 200.162 196.81 200.575 195.364C200.613 194.457 200.698 193.602 200.837 192.7C202.712 180.311 211.086 166.98 225.095 154.084C238.793 141.377 257.439 129.834 276.274 122.286ZM408.836 188.685C396.026 182.351 382.822 175.799 372.024 163.543C367.975 158.934 364.302 153.786 360.773 148.795C351.186 135.327 342.074 122.585 325.625 118.826C301.326 113.278 256.539 130.857 227.944 157.18C214.67 169.4 206.785 181.893 205.052 193.278C203.185 205.465 214.096 215 237.289 221.663C253.35 226.264 270.172 228.322 286.494 230.259C308.237 232.925 330.686 235.62 351.824 244.367C359.515 247.562 367.006 251.909 374.2 256.143C392.775 267.056 410.368 277.323 431.908 269.028C438.627 266.429 444.057 263.272 447.887 259.746C458.906 249.604 458.406 234.846 446.32 214.663C435.495 201.85 421.944 195.132 408.836 188.685Z" fill="#53BDB1"/>
    <path d="M94.8034 630.403C96.6597 629.265 98.7293 628.413 100.941 627.775C114.926 623.807 131.392 627.973 146.062 639.125C163.154 652.135 174.244 671.838 174.212 689.309C174.209 691.164 174.062 693.089 173.845 694.871C172.762 702.571 168.757 708.697 161.903 713.177C148.194 722.067 124.874 722.238 109.835 717.932C101.139 715.421 93.2364 708.061 87.6223 697.211C82.5055 687.36 79.6036 675.232 79.6242 663.893C79.7238 648.275 85.2372 636.019 94.8034 630.403ZM110.983 713.798C123.029 717.314 146.062 718.283 159.556 709.536C165.339 705.767 168.7 700.638 169.568 694.222C169.784 692.582 169.93 690.942 169.933 689.23C169.963 673.042 159.584 654.624 143.489 642.472C129.887 632.178 114.775 628.299 102.075 631.842C100.22 632.338 98.5068 633.119 96.9363 634.044C88.6549 638.949 83.9286 649.78 83.903 663.901C83.9376 684.154 94.2332 708.99 110.983 713.798Z" fill="#53BDB1"/>
    <path d="M89.1513 391.515C87.0638 392.134 84.8442 392.421 82.5426 392.465C68.0073 392.678 53.1806 384.392 41.8963 369.824C28.7541 352.833 23.1421 330.932 27.6948 314.063C28.1779 312.273 28.8173 310.451 29.4884 308.786C32.5281 301.629 37.9817 296.748 45.7621 294.195C61.3041 289.156 83.874 295.026 97.2865 303.078C105.036 307.755 110.764 316.909 113.379 328.842C115.772 339.681 115.436 352.148 112.481 363.095C108.343 378.155 99.8452 388.566 89.1513 391.515ZM95.1071 306.774C84.3819 300.26 62.3848 293.363 47.0865 298.319C40.5247 300.463 35.9508 304.547 33.4522 310.521C32.8183 312.048 32.2532 313.595 31.8072 315.247C27.589 330.876 32.847 351.353 45.2482 367.257C55.7228 380.72 69.3157 388.378 82.5002 388.243C84.4203 388.244 86.2772 387.933 88.0335 387.446C97.3023 384.851 104.671 375.613 108.35 361.98C113.559 342.408 110.042 315.754 95.1071 306.774Z" fill="#53BDB1"/>
    <path d="M200.375 328.696C203.4 330.449 206.861 334.005 206.125 340.852C205.441 347.259 200.836 356.713 196.284 361.079C189.732 367.383 176.667 365.871 167.896 360.785C161.645 357.161 157.991 352.079 158.002 346.832C157.987 345.813 158.131 344.751 158.405 343.697C159.791 338.17 165.251 333.051 173.295 329.632C181.578 326.149 193.167 324.516 200.375 328.696ZM161.746 344.557C161.567 345.329 161.469 346.08 161.45 346.81C161.49 350.807 164.457 354.75 169.649 357.761C179.328 363.372 189.719 362.526 193.907 358.556C197.819 354.829 202.045 346.031 202.651 340.455C203.08 336.461 201.747 333.532 198.622 331.72C193.329 328.652 183.482 329.139 174.583 332.871C167.691 335.813 162.879 340.162 161.746 344.557Z" fill="#53BDB1"/>
    <path d="M125.938 143.475C126.202 155.171 121.261 166.787 110.898 179.176C94.603 198.544 70.9066 209.698 48.0666 220.496C46.6392 221.135 45.2831 221.774 43.9268 222.485C-5.96421 246.071 -46.5108 268.39 -82.0836 300.702C-83.6551 302.125 -85.4408 303.691 -87.3695 305.47C-90.2267 308.033 -93.5124 310.95 -97.0126 314.153L-97.0021 308.377C-94.5735 306.17 -92.2878 304.178 -90.2164 302.327C-88.2878 300.619 -86.502 298.982 -84.9306 297.63C-48.9293 264.963 -8.09715 242.501 42.1509 218.702C43.507 218.063 44.9344 217.424 46.362 216.713C68.845 206.128 92.0418 195.188 107.765 176.532C117.413 164.997 122.068 154.237 121.802 143.682C121.541 129.847 117.926 118.145 111.38 109.86C104.265 100.862 94.2176 96.3509 81.452 96.613C58.8448 97 38.3596 107.018 18.5168 116.752C-1.25464 126.415 -21.5971 136.362 -44.6333 137.39C-64.1034 138.21 -82.0698 135.611 -96.679 130.022L-96.6707 125.458C-82.4183 131.189 -64.4522 133.931 -44.8395 133.111C-22.7305 132.152 -2.74483 122.347 16.5983 112.898C36.798 103.022 57.7114 92.7904 81.3171 92.334C108.132 91.7407 125.283 111.383 125.938 143.475Z" fill="#53BDB1"/>
  </g>
</svg>
