<svg width="1164" height="1282" viewBox="0 0 1164 1282" fill="none" xmlns="http://www.w3.org/2000/svg">
  <g opacity="0.08">
    <path
      d="M1302.31 -1.69288e-06L1307.67 -1.45857e-06C1237.85 80.0503 1080.92 139.049 905.239 151.117C857.666 154.335 826.978 172.168 816.392 202.74C808.619 225.267 811.835 253.56 825.906 284.668C839.977 315.642 863.295 346.482 893.447 373.836C904.971 384.295 918.104 397.569 932.041 411.783C996.767 477.62 1085.48 567.593 1164.14 526.294C1207.16 503.633 1215.2 460.859 1223.64 415.671C1232.22 369.813 1241.06 322.346 1289.98 299.552C1304.72 292.713 1321.74 287.886 1341.04 285.07L1341.04 293.249C1322.94 295.931 1307.13 300.49 1293.33 306.926C1248.17 327.978 1239.99 371.422 1231.42 417.28C1222.97 462.468 1214.26 509.13 1167.76 533.534C1106.39 565.715 1041.26 525.087 984.706 474.402C939.814 438.6 898.673 393.815 868.387 367.668C764.128 277.829 731.966 142.133 870.397 125.238C1006.68 108.477 1130.91 61.8143 1209.3 0.134088L1302.31 -1.69288e-06Z"
      fill="#53BDB1"/>
    <path
      d="M1061.29 1459.32C1045.59 1461.6 1029.22 1466.43 1011.9 1471.52C982.247 1480.24 951.918 1489.08 922.528 1486.13C896.359 1488.68 870.593 1486.67 846.974 1473.67C818.792 1458.12 809.532 1420.44 821.208 1392.69C857.844 1305.68 988.957 1301.13 1007.07 1201.92L1007.07 1201.78C1018.35 1160.36 994.996 1113.03 969.364 1082.06C925.749 1029.64 846.303 986.476 774.506 977.627C771.286 977.762 767.931 977.762 764.71 977.896C735.991 978.7 704.186 979.504 672.649 977.359C618.969 977.091 563.142 971.863 520.467 945.452C453.099 903.892 471.887 797.177 535.229 816.08C538.181 813.801 541.402 811.79 544.757 810.449C557.909 804.952 580.32 803.746 611.454 829.888C645.272 858.176 676.809 870.912 710.627 870.242C740.42 869.571 772.627 858.444 815.034 834.312C852.61 812.862 888.71 781.223 926.823 747.573C985.736 695.824 1046.8 642.198 1115.78 627.049C1158.05 617.798 1206.49 619.139 1259.91 631.205C1286.07 637.103 1313.58 645.55 1342.04 656.543L1342.04 665.123C1312.91 653.727 1284.87 645.013 1258.16 638.98C1205.96 627.183 1158.58 625.842 1117.52 634.824C1050.55 649.571 990.299 702.393 932.056 753.605C893.541 787.39 857.173 819.431 818.926 841.284C775.311 866.22 741.896 877.615 710.762 878.286C674.796 879.09 641.649 865.684 606.22 836.055C583.943 817.42 563.813 811.253 547.844 817.957C533.619 823.989 524.09 839.943 522.48 860.857C520.601 884.587 530.129 919.309 562.74 939.553C618.433 974.008 699.489 971.729 764.576 969.986C771.285 969.852 777.861 969.584 784.303 969.45C862.138 967.707 960.507 1013.96 1012.84 1076.97C1039.15 1108.61 1063.03 1157.54 1051.36 1200.31L1051.36 1200.44C1039.28 1243.21 994.862 1272.03 951.784 1299.78C920.784 1319.89 891.528 1338.8 874.619 1362.12C858.381 1384.38 851.939 1407.57 856.368 1427.28C860.125 1443.9 871.13 1457.44 889.247 1467.5C926.688 1488.28 968.961 1475.81 1009.76 1463.88C1027.34 1458.65 1043.98 1453.83 1060.22 1451.41C1106.92 1444.57 1161.94 1449.8 1215.08 1466.02C1265.27 1481.44 1309.69 1505.98 1341.9 1535.87L1341.9 1547C1310.23 1515.63 1264.6 1489.75 1212.67 1473.8C1161.4 1457.98 1106.25 1452.75 1061.29 1459.32Z"
      fill="#53BDB1"/>
    <path
      d="M722.081 119.643C648.71 157.87 579.228 193.951 555.486 237.007C540.865 263.564 538.049 286.366 546.767 306.754C570.643 361.613 676.475 388.304 769.833 411.911C840.254 429.616 901.017 445.041 925.295 469.989C954.402 499.9 965.804 531.823 959.231 564.819C940.586 659.246 782.308 734.895 734.153 755.819C657.831 789.083 603.238 783.584 538.988 736.37C530.939 730.468 522.489 723.494 513.502 716.117C474.066 683.791 424.839 643.687 374.002 662.197C334.164 676.683 292.985 667.696 255.025 636.176C223.369 609.752 195.335 568.306 178.3 522.434C172.13 505.802 166.764 488.499 161.533 471.733C142.218 409.497 123.841 350.748 65.6269 313.326C46.848 301.254 24.4476 289.317 0.035117 278.721L0.0351174 270.002C26.1914 281.135 50.0673 293.743 70.0534 306.62C130.682 345.651 150.266 408.558 169.313 469.453C174.544 486.085 179.775 503.253 185.946 519.751C202.444 564.416 229.539 604.655 260.256 630.14C285.071 650.796 324.506 671.854 371.319 654.82C426.449 634.7 477.554 676.414 518.599 710.081C527.452 717.324 535.902 724.164 543.816 730.066C605.25 775.268 657.697 780.499 730.934 748.576C758.298 736.638 811.415 711.422 859.971 676.548C913.357 638.053 944.074 599.961 951.317 563.477C957.219 533.164 946.622 503.656 919.527 475.757C896.858 452.418 834.084 436.591 767.821 419.825C672.586 395.816 564.741 368.588 539.39 310.107C529.598 287.573 532.683 261.821 548.377 233.251C573.326 188.049 643.747 151.432 718.325 112.669C784.856 78.0633 852.996 42.519 890.018 5.79309e-05L900.48 5.83882e-05C863.593 46.0064 792.099 83.2944 722.081 119.643Z"
      fill="#53BDB1"/>
    <path
      d="M569.792 72.5391C526.192 94.1265 485.006 114.641 465.285 141.726C434.43 184.096 422.356 232.635 431.344 278.491C440.467 325.286 470.92 366.852 516.935 395.278C535.448 406.675 571.536 417.67 609.905 429.335C686.641 452.665 773.574 479.08 785.111 524.936C788.868 539.954 787.124 553.496 779.879 565.161C760.561 596.403 705.96 608.336 662.225 617.856C643.309 622.013 626.942 625.499 616.881 629.924C562.414 653.656 523.374 649.634 477.493 615.979C470.651 610.884 463.944 605.252 456.699 599.219C438.052 583.531 418.868 567.173 396.732 562.48C385.865 560.2 375.535 562.212 364.535 564.357C351.388 566.905 337.704 569.586 323.752 564.089C268.211 542.635 247.82 465.269 231.453 403.055C226.892 385.758 222.599 369.4 218.037 356.259C188.255 270.714 147.606 153.66 60.6734 97.7469C43.7698 86.8861 22.8416 76.2934 0.0351815 67.4439L0.0351819 58.8627C24.5856 68.1144 47.1237 79.3774 65.1005 91.0427C154.314 148.43 195.633 267.094 225.684 353.712C230.38 367.254 234.673 383.747 239.368 401.177C255.332 461.649 275.053 536.87 326.837 556.848C338.777 561.407 350.583 559.128 363.193 556.714C374.462 554.569 386.268 552.289 398.61 554.837C422.758 559.932 442.747 576.827 462.066 593.185C469.042 599.085 475.749 604.716 482.323 609.543C525.521 641.321 562.279 644.941 613.795 622.549C624.527 617.856 641.297 614.236 660.615 609.945C703.008 600.694 755.597 589.162 773.171 560.871C779.343 550.949 780.684 539.954 777.464 526.814C767 485.248 678.726 458.431 607.624 436.978C567.109 424.642 532.095 414.05 512.776 402.116C464.883 372.35 433.088 329.041 423.563 279.966C414.172 231.83 426.649 181.147 458.846 136.899C479.774 108.205 521.765 87.2883 566.304 65.2986C605.612 45.8565 645.724 25.8782 671.482 5.59842e-05L682.751 5.64767e-05C656.322 29.6325 612.588 51.3539 569.792 72.5391Z"
      fill="#53BDB1"/>
    <path
      d="M428.347 58.214L424.997 62.238C383.328 113.343 336.165 171.155 358.005 240.636C363.364 257.805 372.341 274.571 380.916 290.667C399.808 326.213 419.37 362.965 403.023 407.364C393.109 434.325 379.04 441.434 368.857 442.775C352.511 444.787 334.825 433.252 319.283 410.315C295.702 375.574 285.117 333.993 274.934 293.753C269.977 274.303 264.886 254.183 258.454 235.539C232.327 160.424 197.893 61.0307 131.035 -1.4993e-05L142.692 -1.44835e-05C206.736 62.6404 240.366 159.351 265.957 232.856C272.523 251.903 277.748 272.157 282.705 291.741C292.754 331.31 303.205 372.087 325.982 405.754C339.649 425.74 354.923 436.337 367.92 434.727C379.174 433.386 388.687 422.923 395.52 404.547C410.661 363.502 392.707 329.969 373.815 294.423C365.106 277.925 355.995 260.89 350.368 243.05L350.368 242.916C327.322 169.277 375.959 109.721 418.834 57.0068L422.183 52.9828C423.255 51.6414 424.863 49.7636 426.739 47.4833C441.075 30.1801 453.536 14.3523 463.986 -4.39248e-07L474.035 0C460.905 18.3763 446.166 36.7525 432.902 52.7144C430.892 54.9947 429.418 56.8726 428.347 58.214Z"
      fill="#53BDB1"/>
    <path
      d="M783.47 1319.59C746.435 1334.45 712.823 1339.57 688.834 1334.16C654.685 1326.45 635.887 1300.18 617.817 1274.69C611.247 1265.6 604.412 1256.03 597.055 1247.67C577.796 1225.84 554.707 1214.49 530.222 1202.41C504.713 1189.82 478.362 1176.92 456.98 1151.21L456.623 1150.62C448.247 1136.81 442.586 1123.96 439.624 1112.46C419.088 1065.33 418.199 1011 464.853 992.914C523.65 970.182 589.551 1051 640.264 1071.89C709.091 1100.33 777.091 1060.88 847.673 1080.95C898.17 1095.28 930.9 1150.87 927.438 1173.61C927.045 1176.34 926.364 1179.16 925.592 1181.89C925.525 1183.59 925.366 1185.2 925.109 1186.9C921.625 1210.2 905.921 1235.3 879.618 1259.61C853.898 1283.55 818.868 1305.33 783.47 1319.59ZM533.925 1195.16C558.039 1207.02 582.896 1219.3 603.246 1242.32C610.877 1250.97 617.803 1260.64 624.456 1270.02C642.533 1295.31 659.715 1319.25 690.665 1326.26C736.384 1336.61 820.557 1303.4 874.247 1253.79C899.171 1230.77 913.959 1207.24 917.179 1185.82C920.648 1162.9 900.095 1145 856.453 1132.55C826.23 1123.95 794.585 1120.14 763.879 1116.55C722.977 1111.61 680.748 1106.62 640.962 1090.24C626.487 1084.25 612.382 1076.1 598.838 1068.17C563.865 1047.7 530.742 1028.46 490.258 1044.13C477.63 1049.04 467.428 1055 460.237 1061.64C439.549 1080.75 440.539 1108.51 463.338 1146.43C483.742 1170.49 509.251 1183.08 533.925 1195.16Z"
      fill="#53BDB1"/>
    <path
      d="M1122.6 363.256C1119.11 365.397 1115.22 367.003 1111.06 368.207C1084.77 375.7 1053.79 367.939 1026.15 347.066C993.961 322.714 973.035 285.785 973.035 253.004C973.035 249.525 973.303 245.913 973.706 242.568C975.718 228.117 983.23 216.61 996.107 208.181C1021.86 191.456 1065.72 191.054 1094.03 199.082C1110.39 203.765 1125.28 217.547 1135.88 237.885C1145.54 256.349 1151.04 279.095 1151.04 300.37C1150.9 329.672 1140.57 352.686 1122.6 363.256ZM1091.88 206.843C1069.21 200.287 1025.89 198.547 1000.53 215.005C989.668 222.096 983.364 231.73 981.754 243.772C981.352 246.849 981.083 249.927 981.083 253.138C981.083 283.511 1000.67 318.032 1030.98 340.778C1056.6 360.045 1085.04 367.27 1108.92 360.58C1112.4 359.644 1115.62 358.172 1118.57 356.432C1134.13 347.2 1142.99 326.862 1142.99 300.37C1142.85 262.37 1123.4 215.808 1091.88 206.843Z"
      fill="#53BDB1"/>
    <path
      d="M1134.49 812.59C1138.41 811.419 1142.59 810.872 1146.91 810.782C1174.25 810.331 1202.16 825.864 1223.44 853.225C1248.21 885.136 1258.84 926.308 1250.34 958.049C1249.43 961.418 1248.24 964.846 1246.98 967.981C1241.29 981.452 1231.05 990.65 1216.42 995.479C1187.21 1005.01 1144.74 994.046 1119.49 978.948C1104.9 970.178 1094.09 952.981 1089.13 930.546C1084.6 910.168 1085.19 886.72 1090.71 866.121C1098.44 837.783 1114.39 818.173 1134.49 812.59ZM1123.58 971.989C1143.77 984.204 1185.16 997.101 1213.92 987.726C1226.25 983.672 1234.84 975.975 1239.52 964.732C1240.71 961.856 1241.77 958.946 1242.6 955.837C1250.48 926.428 1240.52 887.934 1217.14 858.065C1197.4 832.778 1171.8 818.423 1147.01 818.722C1143.4 818.726 1139.91 819.318 1136.6 820.239C1119.18 825.151 1105.35 842.552 1098.48 868.204C1088.75 905.032 1095.46 955.151 1123.58 971.989Z"
      fill="#53BDB1"/>
    <path
      d="M925.514 931.115C919.819 927.828 913.297 921.152 914.659 908.271C915.923 896.22 924.552 878.424 933.098 870.197C945.399 858.317 969.976 861.118 986.491 870.652C998.259 877.447 1005.15 886.993 1005.15 896.861C1005.18 898.778 1004.91 900.775 1004.4 902.758C1001.81 913.159 991.56 922.805 976.442 929.262C960.876 935.84 939.086 938.951 925.514 931.115ZM998.113 901.153C998.446 899.7 998.629 898.287 998.662 896.914C998.573 889.397 992.978 881.991 983.203 876.347C964.98 865.826 945.439 867.452 937.576 874.934C930.232 881.956 922.315 898.518 921.194 909.007C920.4 916.521 922.917 922.024 928.801 925.421C938.767 931.174 957.285 930.224 974.009 923.175C986.961 917.619 995.996 909.422 998.113 901.153Z"
      fill="#53BDB1"/>
    <path
      d="M1066.06 1278.9C1065.52 1256.89 1074.78 1235.02 1094.24 1211.67C1124.84 1175.18 1169.39 1154.11 1212.34 1133.72C1215.02 1132.51 1217.57 1131.3 1220.12 1129.96C1313.93 1085.41 1390.15 1043.28 1456.99 982.36C1459.94 979.676 1463.29 976.724 1466.92 973.37C1472.29 968.539 1478.46 963.038 1485.04 957L1485.04 967.869C1480.47 972.028 1476.18 975.785 1472.29 979.274C1468.66 982.494 1465.31 985.58 1462.36 988.13C1394.72 1049.72 1317.95 1092.12 1223.48 1137.07C1220.93 1138.28 1218.24 1139.49 1215.56 1140.83C1173.28 1160.82 1129.67 1181.48 1100.14 1216.64C1082.03 1238.38 1073.3 1258.64 1073.84 1278.5C1074.38 1304.53 1081.22 1326.53 1093.57 1342.1C1106.99 1359 1125.91 1367.46 1149.93 1366.92C1192.48 1366.12 1230.99 1347.2 1268.3 1328.81C1305.47 1310.56 1343.72 1291.78 1387.07 1289.77C1423.7 1288.16 1457.52 1292.99 1485.04 1303.45L1485.04 1312.04C1458.19 1301.31 1424.38 1296.21 1387.47 1297.82C1345.87 1299.7 1308.29 1318.21 1271.92 1336.06C1233.94 1354.71 1194.62 1374.03 1150.2 1374.97C1099.74 1376.18 1067.4 1339.28 1066.06 1278.9Z"
      fill="#53BDB1"/>
  </g>
</svg>
