<svg width="116" height="114" viewBox="0 0 116 114" fill="none" xmlns="http://www.w3.org/2000/svg">
<path d="M42.6971 16.1987C42.6971 16.1987 42.4721 16.5718 42.0221 17.3179C41.5721 18.064 40.9548 19.1201 40.2276 20.4231C39.956 21.1007 39.506 21.8468 39.1822 22.7081C38.7953 23.5119 38.3508 24.3787 37.9748 25.4238C37.5989 26.469 37.2229 27.5141 36.7893 28.6223C36.4189 29.7882 36.1115 31.0116 35.8041 32.2351C35.1948 34.8027 34.654 37.5487 34.3711 40.6458C34.0827 43.6222 33.9259 46.8346 34.1944 50.0882L34.2491 51.2952L34.3669 52.5599C34.4628 53.3417 34.5642 54.2443 34.6601 55.0261C34.6984 55.871 34.9782 56.705 35.0741 57.4869C35.2331 58.3263 35.3921 59.1658 35.5511 60.0053C35.9898 61.6787 36.4286 63.3522 36.9249 64.9625L37.8217 67.4014C38.1014 68.2354 38.3811 69.0694 38.776 69.7772C39.5138 71.3766 40.1308 72.9815 41.0414 74.3917C41.4364 75.0995 41.8944 75.8649 42.2317 76.6358C42.6267 77.3436 43.1423 78.046 43.6004 78.8114C44.116 79.5137 44.511 80.2215 44.9635 80.8663C45.4792 81.5686 45.9894 82.1502 46.505 82.8526L47.2154 83.8485L47.4101 84.142L47.5363 84.2573C47.4732 84.1996 47.5363 84.2573 47.5363 84.2573L47.5994 84.3149L47.9834 84.7813C48.5567 85.4205 49.0723 86.1229 49.6401 86.6414C51.7385 88.9049 54.1303 90.9736 56.4427 92.6226C58.8182 94.3292 61.1196 95.7368 63.3416 96.7246C65.6266 97.7701 67.7224 98.6427 69.6755 99.0379C69.9224 99.1477 70.1638 99.1368 70.4107 99.2465C70.5945 99.2987 70.899 99.3453 71.0828 99.3975C71.5711 99.4963 71.9963 99.5375 72.427 99.6994C73.2774 99.7818 74.0701 99.9273 74.7998 100.015C75.5241 99.9823 76.1331 100.076 76.7997 100.106C77.3456 100.142 77.886 100.057 78.3112 100.098C79.0985 100.123 79.5814 100.101 79.5814 100.101L79.7021 100.095C80.3056 100.068 80.8734 100.586 80.8431 101.253C80.865 101.736 80.5248 102.235 80.0475 102.378C80.0475 102.378 79.5701 102.52 78.7361 102.8C77.9021 103.08 76.6429 103.318 74.9009 103.579C74.056 103.617 73.1534 103.718 72.1247 103.705C71.5788 103.669 71.096 103.691 70.5501 103.655C70.3087 103.666 70.0042 103.619 69.6997 103.573C69.3952 103.526 69.1538 103.537 68.8493 103.49C66.5395 103.232 63.9087 102.565 61.2616 101.536C58.7873 100.318 56.0607 98.869 53.3752 96.995C50.7474 95.0579 48.1662 92.8164 45.8046 90.081C45.1683 89.3842 44.7157 88.7394 44.1424 88.1002L43.7584 87.6338L43.5692 87.4609L43.443 87.3457L43.3059 86.9891L42.5324 85.9355C42.0167 85.2332 41.4956 84.4102 40.98 83.7078C40.5219 82.9424 40.0639 82.177 39.5428 81.3539C39.0847 80.5885 38.5636 79.7654 38.1632 78.9369C37.7628 78.1084 37.3623 77.2799 37.0195 76.3883C36.2187 74.7313 35.6538 72.9426 34.9737 71.2801C34.6309 70.3885 34.4088 69.4914 34.1291 68.6574L33.4051 66.0292C32.9609 64.2351 32.6375 62.4355 32.314 60.6358C32.2126 59.7333 32.1112 58.8307 31.9522 57.9913C31.8508 57.0887 31.6918 56.2493 31.7111 55.3412C31.6728 54.4963 31.5714 53.5938 31.5331 52.7488L31.4153 51.4842L31.4182 50.214C31.4623 48.5187 31.3857 46.8288 31.4928 45.1911C31.6 43.5534 31.6496 41.9787 31.9406 40.3932C32.3442 37.2906 32.9371 34.3608 33.6671 31.7877C34.0321 30.5012 34.3971 29.2146 34.7676 28.0487C35.2012 26.9405 35.5717 25.7747 36.0107 24.7871C36.3867 23.742 36.8257 22.7545 37.2126 21.9507C37.6571 21.0839 37.9809 20.2226 38.3102 19.4819C39.0319 18.0582 39.7123 17.0598 40.0416 16.3191C40.4916 15.573 40.6535 15.1423 40.6535 15.1423C40.9306 14.5855 41.707 14.3689 42.2062 14.7091C42.8783 14.8601 43.0319 15.5788 42.6971 16.1987C42.7547 16.1357 42.7547 16.1357 42.6971 16.1987Z" fill="white"/>
<path d="M34.7411 11.4781C35.0456 11.5248 35.4077 11.5084 35.7698 11.492L36.6148 11.4537C37.2183 11.4263 37.8163 11.2782 38.4144 11.1302C39.0124 10.9821 39.5474 10.7764 40.1455 10.6284C40.6804 10.4227 41.273 10.1539 41.7449 9.8906C42.2744 9.56422 42.7462 9.30092 43.2757 8.97453C43.8052 8.64815 44.2085 8.20653 44.6749 7.82253C45.1413 7.43852 45.5447 6.99691 45.948 6.55529C46.3513 6.11367 46.6915 5.61443 47.0372 5.2359C47.7231 4.35813 48.9823 4.11962 49.8601 4.80554C50.3593 5.14577 50.6281 5.73835 50.6555 6.34187L50.6197 6.88778L50.7099 10.2099C50.7591 11.2962 50.7507 12.4457 50.8 13.532C50.7916 14.6814 50.7202 15.7733 50.528 16.8705C50.4347 17.4795 50.3358 17.9678 50.1794 18.5192C50.0696 18.7661 50.023 19.0706 49.9187 19.4382C49.8611 19.5013 49.8665 19.622 49.8611 19.5013C49.798 19.4437 49.7925 19.323 49.4771 19.0349C49.2878 18.862 49.0409 18.7523 48.7995 18.7632C48.3743 18.722 48.6788 18.7687 48.6157 18.7111L48.5005 18.8372C48.2591 18.8482 48.0231 18.9798 47.8448 19.0484C47.5513 19.2431 47.4991 19.4269 47.447 19.6107C47.4003 19.9152 47.4058 20.0359 47.4798 20.3349C47.5484 20.5133 47.5593 20.7547 48.1162 21.0318C48.3 21.084 48.4207 21.0785 48.6045 21.1306C48.7252 21.1252 48.8459 21.1197 48.9035 21.0566C49.0242 21.0511 49.0818 20.988 49.1394 20.9249C49.197 20.8619 49.197 20.8619 49.2547 20.7988C48.7883 21.1828 48.064 21.2156 47.6169 20.6916C47.2329 20.2252 47.2001 19.501 47.7241 19.0539C47.7817 18.9908 47.8393 18.9277 47.8393 18.9277C47.897 18.8646 47.897 18.8646 48.0753 18.796C48.196 18.7906 48.2536 18.7275 48.495 18.7165C48.6157 18.7111 48.8571 18.7001 48.9833 18.8153C49.6032 19.1501 49.6142 19.3915 49.7458 19.6274C49.883 19.9841 49.8308 20.1679 49.7896 20.5931C49.7375 20.7769 49.6277 21.0238 49.2765 21.2816C49.1613 21.4078 48.8623 21.4818 48.6209 21.4927L48.5002 21.4982C48.3795 21.5037 48.684 21.5504 48.2588 21.5092C47.9543 21.4625 47.5867 21.3582 47.3343 21.1277C46.8927 20.7244 46.8187 20.4254 46.7501 20.2471C46.6761 19.948 46.6185 20.0111 46.613 19.8904C46.4182 19.5969 46.3442 19.2978 46.2126 19.0619C45.9438 18.4693 45.7957 17.8713 45.6477 17.2732C45.3515 16.0771 45.1761 14.8755 45.2421 13.663C45.1874 12.456 45.3741 11.238 45.5031 10.0831C45.6898 8.86509 45.9396 7.70472 46.247 6.48125L49.8981 8.31146C49.311 8.70093 48.787 9.14802 48.1368 9.47988L47.193 10.0065L46.3069 10.47L45.4207 10.9335L44.4715 11.3394L43.5223 11.7453L42.5731 12.1512C41.9174 12.3623 41.2617 12.5735 40.6061 12.7846C39.9504 12.9958 39.3523 13.1438 38.6336 13.2974C37.9724 13.3878 37.3168 13.599 36.6556 13.6894L35.6324 13.7963C35.3334 13.8703 34.9712 13.8867 34.6722 13.9608C34.0111 14.0512 33.4488 13.6534 33.3583 12.9922C33.2679 12.3311 33.6657 11.7688 34.3268 11.6783C34.6204 11.4836 34.7411 11.4781 34.7411 11.4781Z" fill="white"/>
</svg>
